ISO-10303-21;
HEADER;
FILE_DESCRIPTION(('FreeCAD Model'),'2;1');
FILE_NAME('/var/www/3D/0T/15968696.2.1.stp','2022-03-08T16:36:46',(
    'Author'),(''),'Open CASCADE STEP processor 6.9','FreeCAD','Unknown'
  );
FILE_SCHEMA(('AUTOMOTIVE_DESIGN { 1 0 10303 214 1 1 1 1 }'));
ENDSEC;
DATA;
#1 = APPLICATION_PROTOCOL_DEFINITION('international standard',
  'automotive_design',2000,#2);
#2 = APPLICATION_CONTEXT(
  'core data for automotive mechanical design processes');
#3 = SHAPE_DEFINITION_REPRESENTATION(#4,#10);
#4 = PRODUCT_DEFINITION_SHAPE('','',#5);
#5 = PRODUCT_DEFINITION('design','',#6,#9);
#6 = PRODUCT_DEFINITION_FORMATION('','',#7);
#7 = PRODUCT('ASSEMBLY','ASSEMBLY','',(#8));
#8 = PRODUCT_CONTEXT('',#2,'mechanical');
#9 = PRODUCT_DEFINITION_CONTEXT('part definition',#2,'design');
#10 = SHAPE_REPRESENTATION('',(#11,#15,#19),#23);
#11 = AXIS2_PLACEMENT_3D('',#12,#13,#14);
#12 = CARTESIAN_POINT('',(0.,0.,0.));
#13 = DIRECTION('',(0.,0.,1.));
#14 = DIRECTION('',(1.,0.,-0.));
#15 = AXIS2_PLACEMENT_3D('',#16,#17,#18);
#16 = CARTESIAN_POINT('',(0.,0.,0.));
#17 = DIRECTION('',(0.,0.,1.));
#18 = DIRECTION('',(1.,0.,0.));
#19 = AXIS2_PLACEMENT_3D('',#20,#21,#22);
#20 = CARTESIAN_POINT('',(0.,0.,0.));
#21 = DIRECTION('',(0.,0.,1.));
#22 = DIRECTION('',(1.,0.,0.));
#23 = ( GEOMETRIC_REPRESENTATION_CONTEXT(3) 
GLOBAL_UNCERTAINTY_ASSIGNED_CONTEXT((#27)) GLOBAL_UNIT_ASSIGNED_CONTEXT(
(#24,#25,#26)) REPRESENTATION_CONTEXT('Context #1',
  '3D Context with UNIT and UNCERTAINTY') );
#24 = ( LENGTH_UNIT() NAMED_UNIT(*) SI_UNIT(.MILLI.,.METRE.) );
#25 = ( NAMED_UNIT(*) PLANE_ANGLE_UNIT() SI_UNIT($,.RADIAN.) );
#26 = ( NAMED_UNIT(*) SI_UNIT($,.STERADIAN.) SOLID_ANGLE_UNIT() );
#27 = UNCERTAINTY_MEASURE_WITH_UNIT(LENGTH_MEASURE(1.E-07),#24,
  'distance_accuracy_value','confusion accuracy');
#28 = PRODUCT_RELATED_PRODUCT_CATEGORY('part',$,(#7));
#29 = SHAPE_REPRESENTATION('',(#11,#30,#42,#54,#66,#78,#90,#102,#114,
    #126,#138,#150,#162,#174,#186,#198,#210,#222,#234,#246,#258,#270,
    #282,#294,#306,#318,#330,#342,#354,#366,#378,#390,#402,#414,#426,
    #438,#450,#462,#474,#486,#498,#510,#522,#534,#546,#558,#570,#582,
    #594,#606,#618,#630,#642,#654,#666,#678,#690,#702,#714,#726,#738,
    #750,#762,#774,#786,#798,#810,#822,#834,#846,#858),#870);
#30 = MANIFOLD_SOLID_BREP('',#31);
#31 = CLOSED_SHELL('',(#32));
#32 = ADVANCED_FACE('',(#33),#37,.T.);
#33 = FACE_BOUND('',#34,.T.);
#34 = VERTEX_LOOP('',#35);
#35 = VERTEX_POINT('',#36);
#36 = CARTESIAN_POINT('',(-1.8,1.2,0.));
#37 = SPHERICAL_SURFACE('',#38,0.135);
#38 = AXIS2_PLACEMENT_3D('',#39,#40,#41);
#39 = CARTESIAN_POINT('',(-1.8,1.2,0.135));
#40 = DIRECTION('',(0.,0.,1.));
#41 = DIRECTION('',(1.,0.,0.));
#42 = MANIFOLD_SOLID_BREP('',#43);
#43 = CLOSED_SHELL('',(#44));
#44 = ADVANCED_FACE('',(#45),#49,.T.);
#45 = FACE_BOUND('',#46,.T.);
#46 = VERTEX_LOOP('',#47);
#47 = VERTEX_POINT('',#48);
#48 = CARTESIAN_POINT('',(-1.8,0.8,0.));
#49 = SPHERICAL_SURFACE('',#50,0.135);
#50 = AXIS2_PLACEMENT_3D('',#51,#52,#53);
#51 = CARTESIAN_POINT('',(-1.8,0.8,0.135));
#52 = DIRECTION('',(0.,0.,1.));
#53 = DIRECTION('',(1.,0.,0.));
#54 = MANIFOLD_SOLID_BREP('',#55);
#55 = CLOSED_SHELL('',(#56));
#56 = ADVANCED_FACE('',(#57),#61,.T.);
#57 = FACE_BOUND('',#58,.T.);
#58 = VERTEX_LOOP('',#59);
#59 = VERTEX_POINT('',#60);
#60 = CARTESIAN_POINT('',(-1.8,0.4,0.));
#61 = SPHERICAL_SURFACE('',#62,0.135);
#62 = AXIS2_PLACEMENT_3D('',#63,#64,#65);
#63 = CARTESIAN_POINT('',(-1.8,0.4,0.135));
#64 = DIRECTION('',(0.,0.,1.));
#65 = DIRECTION('',(1.,0.,0.));
#66 = MANIFOLD_SOLID_BREP('',#67);
#67 = CLOSED_SHELL('',(#68));
#68 = ADVANCED_FACE('',(#69),#73,.T.);
#69 = FACE_BOUND('',#70,.T.);
#70 = VERTEX_LOOP('',#71);
#71 = VERTEX_POINT('',#72);
#72 = CARTESIAN_POINT('',(-1.8,0.,0.));
#73 = SPHERICAL_SURFACE('',#74,0.135);
#74 = AXIS2_PLACEMENT_3D('',#75,#76,#77);
#75 = CARTESIAN_POINT('',(-1.8,0.,0.135));
#76 = DIRECTION('',(0.,0.,1.));
#77 = DIRECTION('',(1.,0.,0.));
#78 = MANIFOLD_SOLID_BREP('',#79);
#79 = CLOSED_SHELL('',(#80));
#80 = ADVANCED_FACE('',(#81),#85,.T.);
#81 = FACE_BOUND('',#82,.T.);
#82 = VERTEX_LOOP('',#83);
#83 = VERTEX_POINT('',#84);
#84 = CARTESIAN_POINT('',(-1.8,-0.4,0.));
#85 = SPHERICAL_SURFACE('',#86,0.135);
#86 = AXIS2_PLACEMENT_3D('',#87,#88,#89);
#87 = CARTESIAN_POINT('',(-1.8,-0.4,0.135));
#88 = DIRECTION('',(0.,0.,1.));
#89 = DIRECTION('',(1.,0.,0.));
#90 = MANIFOLD_SOLID_BREP('',#91);
#91 = CLOSED_SHELL('',(#92));
#92 = ADVANCED_FACE('',(#93),#97,.T.);
#93 = FACE_BOUND('',#94,.T.);
#94 = VERTEX_LOOP('',#95);
#95 = VERTEX_POINT('',#96);
#96 = CARTESIAN_POINT('',(-1.8,-0.8,0.));
#97 = SPHERICAL_SURFACE('',#98,0.135);
#98 = AXIS2_PLACEMENT_3D('',#99,#100,#101);
#99 = CARTESIAN_POINT('',(-1.8,-0.8,0.135));
#100 = DIRECTION('',(0.,0.,1.));
#101 = DIRECTION('',(1.,0.,0.));
#102 = MANIFOLD_SOLID_BREP('',#103);
#103 = CLOSED_SHELL('',(#104));
#104 = ADVANCED_FACE('',(#105),#109,.T.);
#105 = FACE_BOUND('',#106,.T.);
#106 = VERTEX_LOOP('',#107);
#107 = VERTEX_POINT('',#108);
#108 = CARTESIAN_POINT('',(-1.8,-1.2,0.));
#109 = SPHERICAL_SURFACE('',#110,0.135);
#110 = AXIS2_PLACEMENT_3D('',#111,#112,#113);
#111 = CARTESIAN_POINT('',(-1.8,-1.2,0.135));
#112 = DIRECTION('',(0.,0.,1.));
#113 = DIRECTION('',(1.,0.,0.));
#114 = MANIFOLD_SOLID_BREP('',#115);
#115 = CLOSED_SHELL('',(#116));
#116 = ADVANCED_FACE('',(#117),#121,.T.);
#117 = FACE_BOUND('',#118,.T.);
#118 = VERTEX_LOOP('',#119);
#119 = VERTEX_POINT('',#120);
#120 = CARTESIAN_POINT('',(-1.4,1.2,0.));
#121 = SPHERICAL_SURFACE('',#122,0.135);
#122 = AXIS2_PLACEMENT_3D('',#123,#124,#125);
#123 = CARTESIAN_POINT('',(-1.4,1.2,0.135));
#124 = DIRECTION('',(0.,0.,1.));
#125 = DIRECTION('',(1.,0.,0.));
#126 = MANIFOLD_SOLID_BREP('',#127);
#127 = CLOSED_SHELL('',(#128));
#128 = ADVANCED_FACE('',(#129),#133,.T.);
#129 = FACE_BOUND('',#130,.T.);
#130 = VERTEX_LOOP('',#131);
#131 = VERTEX_POINT('',#132);
#132 = CARTESIAN_POINT('',(-1.4,0.8,0.));
#133 = SPHERICAL_SURFACE('',#134,0.135);
#134 = AXIS2_PLACEMENT_3D('',#135,#136,#137);
#135 = CARTESIAN_POINT('',(-1.4,0.8,0.135));
#136 = DIRECTION('',(0.,0.,1.));
#137 = DIRECTION('',(1.,0.,0.));
#138 = MANIFOLD_SOLID_BREP('',#139);
#139 = CLOSED_SHELL('',(#140));
#140 = ADVANCED_FACE('',(#141),#145,.T.);
#141 = FACE_BOUND('',#142,.T.);
#142 = VERTEX_LOOP('',#143);
#143 = VERTEX_POINT('',#144);
#144 = CARTESIAN_POINT('',(-1.4,0.4,0.));
#145 = SPHERICAL_SURFACE('',#146,0.135);
#146 = AXIS2_PLACEMENT_3D('',#147,#148,#149);
#147 = CARTESIAN_POINT('',(-1.4,0.4,0.135));
#148 = DIRECTION('',(0.,0.,1.));
#149 = DIRECTION('',(1.,0.,0.));
#150 = MANIFOLD_SOLID_BREP('',#151);
#151 = CLOSED_SHELL('',(#152));
#152 = ADVANCED_FACE('',(#153),#157,.T.);
#153 = FACE_BOUND('',#154,.T.);
#154 = VERTEX_LOOP('',#155);
#155 = VERTEX_POINT('',#156);
#156 = CARTESIAN_POINT('',(-1.4,0.,0.));
#157 = SPHERICAL_SURFACE('',#158,0.135);
#158 = AXIS2_PLACEMENT_3D('',#159,#160,#161);
#159 = CARTESIAN_POINT('',(-1.4,0.,0.135));
#160 = DIRECTION('',(0.,0.,1.));
#161 = DIRECTION('',(1.,0.,0.));
#162 = MANIFOLD_SOLID_BREP('',#163);
#163 = CLOSED_SHELL('',(#164));
#164 = ADVANCED_FACE('',(#165),#169,.T.);
#165 = FACE_BOUND('',#166,.T.);
#166 = VERTEX_LOOP('',#167);
#167 = VERTEX_POINT('',#168);
#168 = CARTESIAN_POINT('',(-1.4,-0.4,0.));
#169 = SPHERICAL_SURFACE('',#170,0.135);
#170 = AXIS2_PLACEMENT_3D('',#171,#172,#173);
#171 = CARTESIAN_POINT('',(-1.4,-0.4,0.135));
#172 = DIRECTION('',(0.,0.,1.));
#173 = DIRECTION('',(1.,0.,0.));
#174 = MANIFOLD_SOLID_BREP('',#175);
#175 = CLOSED_SHELL('',(#176));
#176 = ADVANCED_FACE('',(#177),#181,.T.);
#177 = FACE_BOUND('',#178,.T.);
#178 = VERTEX_LOOP('',#179);
#179 = VERTEX_POINT('',#180);
#180 = CARTESIAN_POINT('',(-1.4,-0.8,0.));
#181 = SPHERICAL_SURFACE('',#182,0.135);
#182 = AXIS2_PLACEMENT_3D('',#183,#184,#185);
#183 = CARTESIAN_POINT('',(-1.4,-0.8,0.135));
#184 = DIRECTION('',(0.,0.,1.));
#185 = DIRECTION('',(1.,0.,0.));
#186 = MANIFOLD_SOLID_BREP('',#187);
#187 = CLOSED_SHELL('',(#188));
#188 = ADVANCED_FACE('',(#189),#193,.T.);
#189 = FACE_BOUND('',#190,.T.);
#190 = VERTEX_LOOP('',#191);
#191 = VERTEX_POINT('',#192);
#192 = CARTESIAN_POINT('',(-1.4,-1.2,0.));
#193 = SPHERICAL_SURFACE('',#194,0.135);
#194 = AXIS2_PLACEMENT_3D('',#195,#196,#197);
#195 = CARTESIAN_POINT('',(-1.4,-1.2,0.135));
#196 = DIRECTION('',(0.,0.,1.));
#197 = DIRECTION('',(1.,0.,0.));
#198 = MANIFOLD_SOLID_BREP('',#199);
#199 = CLOSED_SHELL('',(#200));
#200 = ADVANCED_FACE('',(#201),#205,.T.);
#201 = FACE_BOUND('',#202,.T.);
#202 = VERTEX_LOOP('',#203);
#203 = VERTEX_POINT('',#204);
#204 = CARTESIAN_POINT('',(-1.,1.2,0.));
#205 = SPHERICAL_SURFACE('',#206,0.135);
#206 = AXIS2_PLACEMENT_3D('',#207,#208,#209);
#207 = CARTESIAN_POINT('',(-1.,1.2,0.135));
#208 = DIRECTION('',(0.,0.,1.));
#209 = DIRECTION('',(1.,0.,0.));
#210 = MANIFOLD_SOLID_BREP('',#211);
#211 = CLOSED_SHELL('',(#212));
#212 = ADVANCED_FACE('',(#213),#217,.T.);
#213 = FACE_BOUND('',#214,.T.);
#214 = VERTEX_LOOP('',#215);
#215 = VERTEX_POINT('',#216);
#216 = CARTESIAN_POINT('',(-1.,0.8,0.));
#217 = SPHERICAL_SURFACE('',#218,0.135);
#218 = AXIS2_PLACEMENT_3D('',#219,#220,#221);
#219 = CARTESIAN_POINT('',(-1.,0.8,0.135));
#220 = DIRECTION('',(0.,0.,1.));
#221 = DIRECTION('',(1.,0.,0.));
#222 = MANIFOLD_SOLID_BREP('',#223);
#223 = CLOSED_SHELL('',(#224));
#224 = ADVANCED_FACE('',(#225),#229,.T.);
#225 = FACE_BOUND('',#226,.T.);
#226 = VERTEX_LOOP('',#227);
#227 = VERTEX_POINT('',#228);
#228 = CARTESIAN_POINT('',(-1.,0.4,0.));
#229 = SPHERICAL_SURFACE('',#230,0.135);
#230 = AXIS2_PLACEMENT_3D('',#231,#232,#233);
#231 = CARTESIAN_POINT('',(-1.,0.4,0.135));
#232 = DIRECTION('',(0.,0.,1.));
#233 = DIRECTION('',(1.,0.,0.));
#234 = MANIFOLD_SOLID_BREP('',#235);
#235 = CLOSED_SHELL('',(#236));
#236 = ADVANCED_FACE('',(#237),#241,.T.);
#237 = FACE_BOUND('',#238,.T.);
#238 = VERTEX_LOOP('',#239);
#239 = VERTEX_POINT('',#240);
#240 = CARTESIAN_POINT('',(-1.,0.,0.));
#241 = SPHERICAL_SURFACE('',#242,0.135);
#242 = AXIS2_PLACEMENT_3D('',#243,#244,#245);
#243 = CARTESIAN_POINT('',(-1.,0.,0.135));
#244 = DIRECTION('',(0.,0.,1.));
#245 = DIRECTION('',(1.,0.,0.));
#246 = MANIFOLD_SOLID_BREP('',#247);
#247 = CLOSED_SHELL('',(#248));
#248 = ADVANCED_FACE('',(#249),#253,.T.);
#249 = FACE_BOUND('',#250,.T.);
#250 = VERTEX_LOOP('',#251);
#251 = VERTEX_POINT('',#252);
#252 = CARTESIAN_POINT('',(-1.,-0.4,0.));
#253 = SPHERICAL_SURFACE('',#254,0.135);
#254 = AXIS2_PLACEMENT_3D('',#255,#256,#257);
#255 = CARTESIAN_POINT('',(-1.,-0.4,0.135));
#256 = DIRECTION('',(0.,0.,1.));
#257 = DIRECTION('',(1.,0.,0.));
#258 = MANIFOLD_SOLID_BREP('',#259);
#259 = CLOSED_SHELL('',(#260));
#260 = ADVANCED_FACE('',(#261),#265,.T.);
#261 = FACE_BOUND('',#262,.T.);
#262 = VERTEX_LOOP('',#263);
#263 = VERTEX_POINT('',#264);
#264 = CARTESIAN_POINT('',(-1.,-0.8,0.));
#265 = SPHERICAL_SURFACE('',#266,0.135);
#266 = AXIS2_PLACEMENT_3D('',#267,#268,#269);
#267 = CARTESIAN_POINT('',(-1.,-0.8,0.135));
#268 = DIRECTION('',(0.,0.,1.));
#269 = DIRECTION('',(1.,0.,0.));
#270 = MANIFOLD_SOLID_BREP('',#271);
#271 = CLOSED_SHELL('',(#272));
#272 = ADVANCED_FACE('',(#273),#277,.T.);
#273 = FACE_BOUND('',#274,.T.);
#274 = VERTEX_LOOP('',#275);
#275 = VERTEX_POINT('',#276);
#276 = CARTESIAN_POINT('',(-1.,-1.2,0.));
#277 = SPHERICAL_SURFACE('',#278,0.135);
#278 = AXIS2_PLACEMENT_3D('',#279,#280,#281);
#279 = CARTESIAN_POINT('',(-1.,-1.2,0.135));
#280 = DIRECTION('',(0.,0.,1.));
#281 = DIRECTION('',(1.,0.,0.));
#282 = MANIFOLD_SOLID_BREP('',#283);
#283 = CLOSED_SHELL('',(#284));
#284 = ADVANCED_FACE('',(#285),#289,.T.);
#285 = FACE_BOUND('',#286,.T.);
#286 = VERTEX_LOOP('',#287);
#287 = VERTEX_POINT('',#288);
#288 = CARTESIAN_POINT('',(-0.6,1.2,0.));
#289 = SPHERICAL_SURFACE('',#290,0.135);
#290 = AXIS2_PLACEMENT_3D('',#291,#292,#293);
#291 = CARTESIAN_POINT('',(-0.6,1.2,0.135));
#292 = DIRECTION('',(0.,0.,1.));
#293 = DIRECTION('',(1.,0.,0.));
#294 = MANIFOLD_SOLID_BREP('',#295);
#295 = CLOSED_SHELL('',(#296));
#296 = ADVANCED_FACE('',(#297),#301,.T.);
#297 = FACE_BOUND('',#298,.T.);
#298 = VERTEX_LOOP('',#299);
#299 = VERTEX_POINT('',#300);
#300 = CARTESIAN_POINT('',(-0.6,0.8,0.));
#301 = SPHERICAL_SURFACE('',#302,0.135);
#302 = AXIS2_PLACEMENT_3D('',#303,#304,#305);
#303 = CARTESIAN_POINT('',(-0.6,0.8,0.135));
#304 = DIRECTION('',(0.,0.,1.));
#305 = DIRECTION('',(1.,0.,0.));
#306 = MANIFOLD_SOLID_BREP('',#307);
#307 = CLOSED_SHELL('',(#308));
#308 = ADVANCED_FACE('',(#309),#313,.T.);
#309 = FACE_BOUND('',#310,.T.);
#310 = VERTEX_LOOP('',#311);
#311 = VERTEX_POINT('',#312);
#312 = CARTESIAN_POINT('',(-0.6,0.4,0.));
#313 = SPHERICAL_SURFACE('',#314,0.135);
#314 = AXIS2_PLACEMENT_3D('',#315,#316,#317);
#315 = CARTESIAN_POINT('',(-0.6,0.4,0.135));
#316 = DIRECTION('',(0.,0.,1.));
#317 = DIRECTION('',(1.,0.,0.));
#318 = MANIFOLD_SOLID_BREP('',#319);
#319 = CLOSED_SHELL('',(#320));
#320 = ADVANCED_FACE('',(#321),#325,.T.);
#321 = FACE_BOUND('',#322,.T.);
#322 = VERTEX_LOOP('',#323);
#323 = VERTEX_POINT('',#324);
#324 = CARTESIAN_POINT('',(-0.6,0.,0.));
#325 = SPHERICAL_SURFACE('',#326,0.135);
#326 = AXIS2_PLACEMENT_3D('',#327,#328,#329);
#327 = CARTESIAN_POINT('',(-0.6,0.,0.135));
#328 = DIRECTION('',(0.,0.,1.));
#329 = DIRECTION('',(1.,0.,0.));
#330 = MANIFOLD_SOLID_BREP('',#331);
#331 = CLOSED_SHELL('',(#332));
#332 = ADVANCED_FACE('',(#333),#337,.T.);
#333 = FACE_BOUND('',#334,.T.);
#334 = VERTEX_LOOP('',#335);
#335 = VERTEX_POINT('',#336);
#336 = CARTESIAN_POINT('',(-0.6,-0.4,0.));
#337 = SPHERICAL_SURFACE('',#338,0.135);
#338 = AXIS2_PLACEMENT_3D('',#339,#340,#341);
#339 = CARTESIAN_POINT('',(-0.6,-0.4,0.135));
#340 = DIRECTION('',(0.,0.,1.));
#341 = DIRECTION('',(1.,0.,0.));
#342 = MANIFOLD_SOLID_BREP('',#343);
#343 = CLOSED_SHELL('',(#344));
#344 = ADVANCED_FACE('',(#345),#349,.T.);
#345 = FACE_BOUND('',#346,.T.);
#346 = VERTEX_LOOP('',#347);
#347 = VERTEX_POINT('',#348);
#348 = CARTESIAN_POINT('',(-0.6,-0.8,0.));
#349 = SPHERICAL_SURFACE('',#350,0.135);
#350 = AXIS2_PLACEMENT_3D('',#351,#352,#353);
#351 = CARTESIAN_POINT('',(-0.6,-0.8,0.135));
#352 = DIRECTION('',(0.,0.,1.));
#353 = DIRECTION('',(1.,0.,0.));
#354 = MANIFOLD_SOLID_BREP('',#355);
#355 = CLOSED_SHELL('',(#356));
#356 = ADVANCED_FACE('',(#357),#361,.T.);
#357 = FACE_BOUND('',#358,.T.);
#358 = VERTEX_LOOP('',#359);
#359 = VERTEX_POINT('',#360);
#360 = CARTESIAN_POINT('',(-0.6,-1.2,0.));
#361 = SPHERICAL_SURFACE('',#362,0.135);
#362 = AXIS2_PLACEMENT_3D('',#363,#364,#365);
#363 = CARTESIAN_POINT('',(-0.6,-1.2,0.135));
#364 = DIRECTION('',(0.,0.,1.));
#365 = DIRECTION('',(1.,0.,0.));
#366 = MANIFOLD_SOLID_BREP('',#367);
#367 = CLOSED_SHELL('',(#368));
#368 = ADVANCED_FACE('',(#369),#373,.T.);
#369 = FACE_BOUND('',#370,.T.);
#370 = VERTEX_LOOP('',#371);
#371 = VERTEX_POINT('',#372);
#372 = CARTESIAN_POINT('',(-0.2,1.2,0.));
#373 = SPHERICAL_SURFACE('',#374,0.135);
#374 = AXIS2_PLACEMENT_3D('',#375,#376,#377);
#375 = CARTESIAN_POINT('',(-0.2,1.2,0.135));
#376 = DIRECTION('',(0.,0.,1.));
#377 = DIRECTION('',(1.,0.,0.));
#378 = MANIFOLD_SOLID_BREP('',#379);
#379 = CLOSED_SHELL('',(#380));
#380 = ADVANCED_FACE('',(#381),#385,.T.);
#381 = FACE_BOUND('',#382,.T.);
#382 = VERTEX_LOOP('',#383);
#383 = VERTEX_POINT('',#384);
#384 = CARTESIAN_POINT('',(-0.2,0.8,0.));
#385 = SPHERICAL_SURFACE('',#386,0.135);
#386 = AXIS2_PLACEMENT_3D('',#387,#388,#389);
#387 = CARTESIAN_POINT('',(-0.2,0.8,0.135));
#388 = DIRECTION('',(0.,0.,1.));
#389 = DIRECTION('',(1.,0.,0.));
#390 = MANIFOLD_SOLID_BREP('',#391);
#391 = CLOSED_SHELL('',(#392));
#392 = ADVANCED_FACE('',(#393),#397,.T.);
#393 = FACE_BOUND('',#394,.T.);
#394 = VERTEX_LOOP('',#395);
#395 = VERTEX_POINT('',#396);
#396 = CARTESIAN_POINT('',(-0.2,0.4,0.));
#397 = SPHERICAL_SURFACE('',#398,0.135);
#398 = AXIS2_PLACEMENT_3D('',#399,#400,#401);
#399 = CARTESIAN_POINT('',(-0.2,0.4,0.135));
#400 = DIRECTION('',(0.,0.,1.));
#401 = DIRECTION('',(1.,0.,0.));
#402 = MANIFOLD_SOLID_BREP('',#403);
#403 = CLOSED_SHELL('',(#404));
#404 = ADVANCED_FACE('',(#405),#409,.T.);
#405 = FACE_BOUND('',#406,.T.);
#406 = VERTEX_LOOP('',#407);
#407 = VERTEX_POINT('',#408);
#408 = CARTESIAN_POINT('',(-0.2,0.,0.));
#409 = SPHERICAL_SURFACE('',#410,0.135);
#410 = AXIS2_PLACEMENT_3D('',#411,#412,#413);
#411 = CARTESIAN_POINT('',(-0.2,0.,0.135));
#412 = DIRECTION('',(0.,0.,1.));
#413 = DIRECTION('',(1.,0.,0.));
#414 = MANIFOLD_SOLID_BREP('',#415);
#415 = CLOSED_SHELL('',(#416));
#416 = ADVANCED_FACE('',(#417),#421,.T.);
#417 = FACE_BOUND('',#418,.T.);
#418 = VERTEX_LOOP('',#419);
#419 = VERTEX_POINT('',#420);
#420 = CARTESIAN_POINT('',(-0.2,-0.4,0.));
#421 = SPHERICAL_SURFACE('',#422,0.135);
#422 = AXIS2_PLACEMENT_3D('',#423,#424,#425);
#423 = CARTESIAN_POINT('',(-0.2,-0.4,0.135));
#424 = DIRECTION('',(0.,0.,1.));
#425 = DIRECTION('',(1.,0.,0.));
#426 = MANIFOLD_SOLID_BREP('',#427);
#427 = CLOSED_SHELL('',(#428));
#428 = ADVANCED_FACE('',(#429),#433,.T.);
#429 = FACE_BOUND('',#430,.T.);
#430 = VERTEX_LOOP('',#431);
#431 = VERTEX_POINT('',#432);
#432 = CARTESIAN_POINT('',(-0.2,-0.8,0.));
#433 = SPHERICAL_SURFACE('',#434,0.135);
#434 = AXIS2_PLACEMENT_3D('',#435,#436,#437);
#435 = CARTESIAN_POINT('',(-0.2,-0.8,0.135));
#436 = DIRECTION('',(0.,0.,1.));
#437 = DIRECTION('',(1.,0.,0.));
#438 = MANIFOLD_SOLID_BREP('',#439);
#439 = CLOSED_SHELL('',(#440));
#440 = ADVANCED_FACE('',(#441),#445,.T.);
#441 = FACE_BOUND('',#442,.T.);
#442 = VERTEX_LOOP('',#443);
#443 = VERTEX_POINT('',#444);
#444 = CARTESIAN_POINT('',(-0.2,-1.2,0.));
#445 = SPHERICAL_SURFACE('',#446,0.135);
#446 = AXIS2_PLACEMENT_3D('',#447,#448,#449);
#447 = CARTESIAN_POINT('',(-0.2,-1.2,0.135));
#448 = DIRECTION('',(0.,0.,1.));
#449 = DIRECTION('',(1.,0.,0.));
#450 = MANIFOLD_SOLID_BREP('',#451);
#451 = CLOSED_SHELL('',(#452));
#452 = ADVANCED_FACE('',(#453),#457,.T.);
#453 = FACE_BOUND('',#454,.T.);
#454 = VERTEX_LOOP('',#455);
#455 = VERTEX_POINT('',#456);
#456 = CARTESIAN_POINT('',(0.2,1.2,0.));
#457 = SPHERICAL_SURFACE('',#458,0.135);
#458 = AXIS2_PLACEMENT_3D('',#459,#460,#461);
#459 = CARTESIAN_POINT('',(0.2,1.2,0.135));
#460 = DIRECTION('',(0.,0.,1.));
#461 = DIRECTION('',(1.,0.,0.));
#462 = MANIFOLD_SOLID_BREP('',#463);
#463 = CLOSED_SHELL('',(#464));
#464 = ADVANCED_FACE('',(#465),#469,.T.);
#465 = FACE_BOUND('',#466,.T.);
#466 = VERTEX_LOOP('',#467);
#467 = VERTEX_POINT('',#468);
#468 = CARTESIAN_POINT('',(0.2,0.8,0.));
#469 = SPHERICAL_SURFACE('',#470,0.135);
#470 = AXIS2_PLACEMENT_3D('',#471,#472,#473);
#471 = CARTESIAN_POINT('',(0.2,0.8,0.135));
#472 = DIRECTION('',(0.,0.,1.));
#473 = DIRECTION('',(1.,0.,0.));
#474 = MANIFOLD_SOLID_BREP('',#475);
#475 = CLOSED_SHELL('',(#476));
#476 = ADVANCED_FACE('',(#477),#481,.T.);
#477 = FACE_BOUND('',#478,.T.);
#478 = VERTEX_LOOP('',#479);
#479 = VERTEX_POINT('',#480);
#480 = CARTESIAN_POINT('',(0.2,0.4,0.));
#481 = SPHERICAL_SURFACE('',#482,0.135);
#482 = AXIS2_PLACEMENT_3D('',#483,#484,#485);
#483 = CARTESIAN_POINT('',(0.2,0.4,0.135));
#484 = DIRECTION('',(0.,0.,1.));
#485 = DIRECTION('',(1.,0.,0.));
#486 = MANIFOLD_SOLID_BREP('',#487);
#487 = CLOSED_SHELL('',(#488));
#488 = ADVANCED_FACE('',(#489),#493,.T.);
#489 = FACE_BOUND('',#490,.T.);
#490 = VERTEX_LOOP('',#491);
#491 = VERTEX_POINT('',#492);
#492 = CARTESIAN_POINT('',(0.2,0.,0.));
#493 = SPHERICAL_SURFACE('',#494,0.135);
#494 = AXIS2_PLACEMENT_3D('',#495,#496,#497);
#495 = CARTESIAN_POINT('',(0.2,0.,0.135));
#496 = DIRECTION('',(0.,0.,1.));
#497 = DIRECTION('',(1.,0.,0.));
#498 = MANIFOLD_SOLID_BREP('',#499);
#499 = CLOSED_SHELL('',(#500));
#500 = ADVANCED_FACE('',(#501),#505,.T.);
#501 = FACE_BOUND('',#502,.T.);
#502 = VERTEX_LOOP('',#503);
#503 = VERTEX_POINT('',#504);
#504 = CARTESIAN_POINT('',(0.2,-0.4,0.));
#505 = SPHERICAL_SURFACE('',#506,0.135);
#506 = AXIS2_PLACEMENT_3D('',#507,#508,#509);
#507 = CARTESIAN_POINT('',(0.2,-0.4,0.135));
#508 = DIRECTION('',(0.,0.,1.));
#509 = DIRECTION('',(1.,0.,0.));
#510 = MANIFOLD_SOLID_BREP('',#511);
#511 = CLOSED_SHELL('',(#512));
#512 = ADVANCED_FACE('',(#513),#517,.T.);
#513 = FACE_BOUND('',#514,.T.);
#514 = VERTEX_LOOP('',#515);
#515 = VERTEX_POINT('',#516);
#516 = CARTESIAN_POINT('',(0.2,-0.8,0.));
#517 = SPHERICAL_SURFACE('',#518,0.135);
#518 = AXIS2_PLACEMENT_3D('',#519,#520,#521);
#519 = CARTESIAN_POINT('',(0.2,-0.8,0.135));
#520 = DIRECTION('',(0.,0.,1.));
#521 = DIRECTION('',(1.,0.,0.));
#522 = MANIFOLD_SOLID_BREP('',#523);
#523 = CLOSED_SHELL('',(#524));
#524 = ADVANCED_FACE('',(#525),#529,.T.);
#525 = FACE_BOUND('',#526,.T.);
#526 = VERTEX_LOOP('',#527);
#527 = VERTEX_POINT('',#528);
#528 = CARTESIAN_POINT('',(0.2,-1.2,0.));
#529 = SPHERICAL_SURFACE('',#530,0.135);
#530 = AXIS2_PLACEMENT_3D('',#531,#532,#533);
#531 = CARTESIAN_POINT('',(0.2,-1.2,0.135));
#532 = DIRECTION('',(0.,0.,1.));
#533 = DIRECTION('',(1.,0.,0.));
#534 = MANIFOLD_SOLID_BREP('',#535);
#535 = CLOSED_SHELL('',(#536));
#536 = ADVANCED_FACE('',(#537),#541,.T.);
#537 = FACE_BOUND('',#538,.T.);
#538 = VERTEX_LOOP('',#539);
#539 = VERTEX_POINT('',#540);
#540 = CARTESIAN_POINT('',(0.6,1.2,0.));
#541 = SPHERICAL_SURFACE('',#542,0.135);
#542 = AXIS2_PLACEMENT_3D('',#543,#544,#545);
#543 = CARTESIAN_POINT('',(0.6,1.2,0.135));
#544 = DIRECTION('',(0.,0.,1.));
#545 = DIRECTION('',(1.,0.,0.));
#546 = MANIFOLD_SOLID_BREP('',#547);
#547 = CLOSED_SHELL('',(#548));
#548 = ADVANCED_FACE('',(#549),#553,.T.);
#549 = FACE_BOUND('',#550,.T.);
#550 = VERTEX_LOOP('',#551);
#551 = VERTEX_POINT('',#552);
#552 = CARTESIAN_POINT('',(0.6,0.8,0.));
#553 = SPHERICAL_SURFACE('',#554,0.135);
#554 = AXIS2_PLACEMENT_3D('',#555,#556,#557);
#555 = CARTESIAN_POINT('',(0.6,0.8,0.135));
#556 = DIRECTION('',(0.,0.,1.));
#557 = DIRECTION('',(1.,0.,0.));
#558 = MANIFOLD_SOLID_BREP('',#559);
#559 = CLOSED_SHELL('',(#560));
#560 = ADVANCED_FACE('',(#561),#565,.T.);
#561 = FACE_BOUND('',#562,.T.);
#562 = VERTEX_LOOP('',#563);
#563 = VERTEX_POINT('',#564);
#564 = CARTESIAN_POINT('',(0.6,0.4,0.));
#565 = SPHERICAL_SURFACE('',#566,0.135);
#566 = AXIS2_PLACEMENT_3D('',#567,#568,#569);
#567 = CARTESIAN_POINT('',(0.6,0.4,0.135));
#568 = DIRECTION('',(0.,0.,1.));
#569 = DIRECTION('',(1.,0.,0.));
#570 = MANIFOLD_SOLID_BREP('',#571);
#571 = CLOSED_SHELL('',(#572));
#572 = ADVANCED_FACE('',(#573),#577,.T.);
#573 = FACE_BOUND('',#574,.T.);
#574 = VERTEX_LOOP('',#575);
#575 = VERTEX_POINT('',#576);
#576 = CARTESIAN_POINT('',(0.6,0.,0.));
#577 = SPHERICAL_SURFACE('',#578,0.135);
#578 = AXIS2_PLACEMENT_3D('',#579,#580,#581);
#579 = CARTESIAN_POINT('',(0.6,0.,0.135));
#580 = DIRECTION('',(0.,0.,1.));
#581 = DIRECTION('',(1.,0.,0.));
#582 = MANIFOLD_SOLID_BREP('',#583);
#583 = CLOSED_SHELL('',(#584));
#584 = ADVANCED_FACE('',(#585),#589,.T.);
#585 = FACE_BOUND('',#586,.T.);
#586 = VERTEX_LOOP('',#587);
#587 = VERTEX_POINT('',#588);
#588 = CARTESIAN_POINT('',(0.6,-0.4,0.));
#589 = SPHERICAL_SURFACE('',#590,0.135);
#590 = AXIS2_PLACEMENT_3D('',#591,#592,#593);
#591 = CARTESIAN_POINT('',(0.6,-0.4,0.135));
#592 = DIRECTION('',(0.,0.,1.));
#593 = DIRECTION('',(1.,0.,0.));
#594 = MANIFOLD_SOLID_BREP('',#595);
#595 = CLOSED_SHELL('',(#596));
#596 = ADVANCED_FACE('',(#597),#601,.T.);
#597 = FACE_BOUND('',#598,.T.);
#598 = VERTEX_LOOP('',#599);
#599 = VERTEX_POINT('',#600);
#600 = CARTESIAN_POINT('',(0.6,-0.8,0.));
#601 = SPHERICAL_SURFACE('',#602,0.135);
#602 = AXIS2_PLACEMENT_3D('',#603,#604,#605);
#603 = CARTESIAN_POINT('',(0.6,-0.8,0.135));
#604 = DIRECTION('',(0.,0.,1.));
#605 = DIRECTION('',(1.,0.,0.));
#606 = MANIFOLD_SOLID_BREP('',#607);
#607 = CLOSED_SHELL('',(#608));
#608 = ADVANCED_FACE('',(#609),#613,.T.);
#609 = FACE_BOUND('',#610,.T.);
#610 = VERTEX_LOOP('',#611);
#611 = VERTEX_POINT('',#612);
#612 = CARTESIAN_POINT('',(0.6,-1.2,0.));
#613 = SPHERICAL_SURFACE('',#614,0.135);
#614 = AXIS2_PLACEMENT_3D('',#615,#616,#617);
#615 = CARTESIAN_POINT('',(0.6,-1.2,0.135));
#616 = DIRECTION('',(0.,0.,1.));
#617 = DIRECTION('',(1.,0.,0.));
#618 = MANIFOLD_SOLID_BREP('',#619);
#619 = CLOSED_SHELL('',(#620));
#620 = ADVANCED_FACE('',(#621),#625,.T.);
#621 = FACE_BOUND('',#622,.T.);
#622 = VERTEX_LOOP('',#623);
#623 = VERTEX_POINT('',#624);
#624 = CARTESIAN_POINT('',(1.,1.2,0.));
#625 = SPHERICAL_SURFACE('',#626,0.135);
#626 = AXIS2_PLACEMENT_3D('',#627,#628,#629);
#627 = CARTESIAN_POINT('',(1.,1.2,0.135));
#628 = DIRECTION('',(0.,0.,1.));
#629 = DIRECTION('',(1.,0.,0.));
#630 = MANIFOLD_SOLID_BREP('',#631);
#631 = CLOSED_SHELL('',(#632));
#632 = ADVANCED_FACE('',(#633),#637,.T.);
#633 = FACE_BOUND('',#634,.T.);
#634 = VERTEX_LOOP('',#635);
#635 = VERTEX_POINT('',#636);
#636 = CARTESIAN_POINT('',(1.,0.8,0.));
#637 = SPHERICAL_SURFACE('',#638,0.135);
#638 = AXIS2_PLACEMENT_3D('',#639,#640,#641);
#639 = CARTESIAN_POINT('',(1.,0.8,0.135));
#640 = DIRECTION('',(0.,0.,1.));
#641 = DIRECTION('',(1.,0.,0.));
#642 = MANIFOLD_SOLID_BREP('',#643);
#643 = CLOSED_SHELL('',(#644));
#644 = ADVANCED_FACE('',(#645),#649,.T.);
#645 = FACE_BOUND('',#646,.T.);
#646 = VERTEX_LOOP('',#647);
#647 = VERTEX_POINT('',#648);
#648 = CARTESIAN_POINT('',(1.,0.4,0.));
#649 = SPHERICAL_SURFACE('',#650,0.135);
#650 = AXIS2_PLACEMENT_3D('',#651,#652,#653);
#651 = CARTESIAN_POINT('',(1.,0.4,0.135));
#652 = DIRECTION('',(0.,0.,1.));
#653 = DIRECTION('',(1.,0.,0.));
#654 = MANIFOLD_SOLID_BREP('',#655);
#655 = CLOSED_SHELL('',(#656));
#656 = ADVANCED_FACE('',(#657),#661,.T.);
#657 = FACE_BOUND('',#658,.T.);
#658 = VERTEX_LOOP('',#659);
#659 = VERTEX_POINT('',#660);
#660 = CARTESIAN_POINT('',(1.,0.,0.));
#661 = SPHERICAL_SURFACE('',#662,0.135);
#662 = AXIS2_PLACEMENT_3D('',#663,#664,#665);
#663 = CARTESIAN_POINT('',(1.,0.,0.135));
#664 = DIRECTION('',(0.,0.,1.));
#665 = DIRECTION('',(1.,0.,0.));
#666 = MANIFOLD_SOLID_BREP('',#667);
#667 = CLOSED_SHELL('',(#668));
#668 = ADVANCED_FACE('',(#669),#673,.T.);
#669 = FACE_BOUND('',#670,.T.);
#670 = VERTEX_LOOP('',#671);
#671 = VERTEX_POINT('',#672);
#672 = CARTESIAN_POINT('',(1.,-0.4,0.));
#673 = SPHERICAL_SURFACE('',#674,0.135);
#674 = AXIS2_PLACEMENT_3D('',#675,#676,#677);
#675 = CARTESIAN_POINT('',(1.,-0.4,0.135));
#676 = DIRECTION('',(0.,0.,1.));
#677 = DIRECTION('',(1.,0.,0.));
#678 = MANIFOLD_SOLID_BREP('',#679);
#679 = CLOSED_SHELL('',(#680));
#680 = ADVANCED_FACE('',(#681),#685,.T.);
#681 = FACE_BOUND('',#682,.T.);
#682 = VERTEX_LOOP('',#683);
#683 = VERTEX_POINT('',#684);
#684 = CARTESIAN_POINT('',(1.,-0.8,0.));
#685 = SPHERICAL_SURFACE('',#686,0.135);
#686 = AXIS2_PLACEMENT_3D('',#687,#688,#689);
#687 = CARTESIAN_POINT('',(1.,-0.8,0.135));
#688 = DIRECTION('',(0.,0.,1.));
#689 = DIRECTION('',(1.,0.,0.));
#690 = MANIFOLD_SOLID_BREP('',#691);
#691 = CLOSED_SHELL('',(#692));
#692 = ADVANCED_FACE('',(#693),#697,.T.);
#693 = FACE_BOUND('',#694,.T.);
#694 = VERTEX_LOOP('',#695);
#695 = VERTEX_POINT('',#696);
#696 = CARTESIAN_POINT('',(1.,-1.2,0.));
#697 = SPHERICAL_SURFACE('',#698,0.135);
#698 = AXIS2_PLACEMENT_3D('',#699,#700,#701);
#699 = CARTESIAN_POINT('',(1.,-1.2,0.135));
#700 = DIRECTION('',(0.,0.,1.));
#701 = DIRECTION('',(1.,0.,0.));
#702 = MANIFOLD_SOLID_BREP('',#703);
#703 = CLOSED_SHELL('',(#704));
#704 = ADVANCED_FACE('',(#705),#709,.T.);
#705 = FACE_BOUND('',#706,.T.);
#706 = VERTEX_LOOP('',#707);
#707 = VERTEX_POINT('',#708);
#708 = CARTESIAN_POINT('',(1.4,1.2,0.));
#709 = SPHERICAL_SURFACE('',#710,0.135);
#710 = AXIS2_PLACEMENT_3D('',#711,#712,#713);
#711 = CARTESIAN_POINT('',(1.4,1.2,0.135));
#712 = DIRECTION('',(0.,0.,1.));
#713 = DIRECTION('',(1.,0.,0.));
#714 = MANIFOLD_SOLID_BREP('',#715);
#715 = CLOSED_SHELL('',(#716));
#716 = ADVANCED_FACE('',(#717),#721,.T.);
#717 = FACE_BOUND('',#718,.T.);
#718 = VERTEX_LOOP('',#719);
#719 = VERTEX_POINT('',#720);
#720 = CARTESIAN_POINT('',(1.4,0.8,0.));
#721 = SPHERICAL_SURFACE('',#722,0.135);
#722 = AXIS2_PLACEMENT_3D('',#723,#724,#725);
#723 = CARTESIAN_POINT('',(1.4,0.8,0.135));
#724 = DIRECTION('',(0.,0.,1.));
#725 = DIRECTION('',(1.,0.,0.));
#726 = MANIFOLD_SOLID_BREP('',#727);
#727 = CLOSED_SHELL('',(#728));
#728 = ADVANCED_FACE('',(#729),#733,.T.);
#729 = FACE_BOUND('',#730,.T.);
#730 = VERTEX_LOOP('',#731);
#731 = VERTEX_POINT('',#732);
#732 = CARTESIAN_POINT('',(1.4,0.4,0.));
#733 = SPHERICAL_SURFACE('',#734,0.135);
#734 = AXIS2_PLACEMENT_3D('',#735,#736,#737);
#735 = CARTESIAN_POINT('',(1.4,0.4,0.135));
#736 = DIRECTION('',(0.,0.,1.));
#737 = DIRECTION('',(1.,0.,0.));
#738 = MANIFOLD_SOLID_BREP('',#739);
#739 = CLOSED_SHELL('',(#740));
#740 = ADVANCED_FACE('',(#741),#745,.T.);
#741 = FACE_BOUND('',#742,.T.);
#742 = VERTEX_LOOP('',#743);
#743 = VERTEX_POINT('',#744);
#744 = CARTESIAN_POINT('',(1.4,0.,0.));
#745 = SPHERICAL_SURFACE('',#746,0.135);
#746 = AXIS2_PLACEMENT_3D('',#747,#748,#749);
#747 = CARTESIAN_POINT('',(1.4,0.,0.135));
#748 = DIRECTION('',(0.,0.,1.));
#749 = DIRECTION('',(1.,0.,0.));
#750 = MANIFOLD_SOLID_BREP('',#751);
#751 = CLOSED_SHELL('',(#752));
#752 = ADVANCED_FACE('',(#753),#757,.T.);
#753 = FACE_BOUND('',#754,.T.);
#754 = VERTEX_LOOP('',#755);
#755 = VERTEX_POINT('',#756);
#756 = CARTESIAN_POINT('',(1.4,-0.4,0.));
#757 = SPHERICAL_SURFACE('',#758,0.135);
#758 = AXIS2_PLACEMENT_3D('',#759,#760,#761);
#759 = CARTESIAN_POINT('',(1.4,-0.4,0.135));
#760 = DIRECTION('',(0.,0.,1.));
#761 = DIRECTION('',(1.,0.,0.));
#762 = MANIFOLD_SOLID_BREP('',#763);
#763 = CLOSED_SHELL('',(#764));
#764 = ADVANCED_FACE('',(#765),#769,.T.);
#765 = FACE_BOUND('',#766,.T.);
#766 = VERTEX_LOOP('',#767);
#767 = VERTEX_POINT('',#768);
#768 = CARTESIAN_POINT('',(1.4,-0.8,0.));
#769 = SPHERICAL_SURFACE('',#770,0.135);
#770 = AXIS2_PLACEMENT_3D('',#771,#772,#773);
#771 = CARTESIAN_POINT('',(1.4,-0.8,0.135));
#772 = DIRECTION('',(0.,0.,1.));
#773 = DIRECTION('',(1.,0.,0.));
#774 = MANIFOLD_SOLID_BREP('',#775);
#775 = CLOSED_SHELL('',(#776));
#776 = ADVANCED_FACE('',(#777),#781,.T.);
#777 = FACE_BOUND('',#778,.T.);
#778 = VERTEX_LOOP('',#779);
#779 = VERTEX_POINT('',#780);
#780 = CARTESIAN_POINT('',(1.4,-1.2,0.));
#781 = SPHERICAL_SURFACE('',#782,0.135);
#782 = AXIS2_PLACEMENT_3D('',#783,#784,#785);
#783 = CARTESIAN_POINT('',(1.4,-1.2,0.135));
#784 = DIRECTION('',(0.,0.,1.));
#785 = DIRECTION('',(1.,0.,0.));
#786 = MANIFOLD_SOLID_BREP('',#787);
#787 = CLOSED_SHELL('',(#788));
#788 = ADVANCED_FACE('',(#789),#793,.T.);
#789 = FACE_BOUND('',#790,.T.);
#790 = VERTEX_LOOP('',#791);
#791 = VERTEX_POINT('',#792);
#792 = CARTESIAN_POINT('',(1.8,1.2,0.));
#793 = SPHERICAL_SURFACE('',#794,0.135);
#794 = AXIS2_PLACEMENT_3D('',#795,#796,#797);
#795 = CARTESIAN_POINT('',(1.8,1.2,0.135));
#796 = DIRECTION('',(0.,0.,1.));
#797 = DIRECTION('',(1.,0.,0.));
#798 = MANIFOLD_SOLID_BREP('',#799);
#799 = CLOSED_SHELL('',(#800));
#800 = ADVANCED_FACE('',(#801),#805,.T.);
#801 = FACE_BOUND('',#802,.T.);
#802 = VERTEX_LOOP('',#803);
#803 = VERTEX_POINT('',#804);
#804 = CARTESIAN_POINT('',(1.8,0.8,0.));
#805 = SPHERICAL_SURFACE('',#806,0.135);
#806 = AXIS2_PLACEMENT_3D('',#807,#808,#809);
#807 = CARTESIAN_POINT('',(1.8,0.8,0.135));
#808 = DIRECTION('',(0.,0.,1.));
#809 = DIRECTION('',(1.,0.,0.));
#810 = MANIFOLD_SOLID_BREP('',#811);
#811 = CLOSED_SHELL('',(#812));
#812 = ADVANCED_FACE('',(#813),#817,.T.);
#813 = FACE_BOUND('',#814,.T.);
#814 = VERTEX_LOOP('',#815);
#815 = VERTEX_POINT('',#816);
#816 = CARTESIAN_POINT('',(1.8,0.4,0.));
#817 = SPHERICAL_SURFACE('',#818,0.135);
#818 = AXIS2_PLACEMENT_3D('',#819,#820,#821);
#819 = CARTESIAN_POINT('',(1.8,0.4,0.135));
#820 = DIRECTION('',(0.,0.,1.));
#821 = DIRECTION('',(1.,0.,0.));
#822 = MANIFOLD_SOLID_BREP('',#823);
#823 = CLOSED_SHELL('',(#824));
#824 = ADVANCED_FACE('',(#825),#829,.T.);
#825 = FACE_BOUND('',#826,.T.);
#826 = VERTEX_LOOP('',#827);
#827 = VERTEX_POINT('',#828);
#828 = CARTESIAN_POINT('',(1.8,0.,0.));
#829 = SPHERICAL_SURFACE('',#830,0.135);
#830 = AXIS2_PLACEMENT_3D('',#831,#832,#833);
#831 = CARTESIAN_POINT('',(1.8,0.,0.135));
#832 = DIRECTION('',(0.,0.,1.));
#833 = DIRECTION('',(1.,0.,0.));
#834 = MANIFOLD_SOLID_BREP('',#835);
#835 = CLOSED_SHELL('',(#836));
#836 = ADVANCED_FACE('',(#837),#841,.T.);
#837 = FACE_BOUND('',#838,.T.);
#838 = VERTEX_LOOP('',#839);
#839 = VERTEX_POINT('',#840);
#840 = CARTESIAN_POINT('',(1.8,-0.4,0.));
#841 = SPHERICAL_SURFACE('',#842,0.135);
#842 = AXIS2_PLACEMENT_3D('',#843,#844,#845);
#843 = CARTESIAN_POINT('',(1.8,-0.4,0.135));
#844 = DIRECTION('',(0.,0.,1.));
#845 = DIRECTION('',(1.,0.,0.));
#846 = MANIFOLD_SOLID_BREP('',#847);
#847 = CLOSED_SHELL('',(#848));
#848 = ADVANCED_FACE('',(#849),#853,.T.);
#849 = FACE_BOUND('',#850,.T.);
#850 = VERTEX_LOOP('',#851);
#851 = VERTEX_POINT('',#852);
#852 = CARTESIAN_POINT('',(1.8,-0.8,0.));
#853 = SPHERICAL_SURFACE('',#854,0.135);
#854 = AXIS2_PLACEMENT_3D('',#855,#856,#857);
#855 = CARTESIAN_POINT('',(1.8,-0.8,0.135));
#856 = DIRECTION('',(0.,0.,1.));
#857 = DIRECTION('',(1.,0.,0.));
#858 = MANIFOLD_SOLID_BREP('',#859);
#859 = CLOSED_SHELL('',(#860));
#860 = ADVANCED_FACE('',(#861),#865,.T.);
#861 = FACE_BOUND('',#862,.T.);
#862 = VERTEX_LOOP('',#863);
#863 = VERTEX_POINT('',#864);
#864 = CARTESIAN_POINT('',(1.8,-1.2,0.));
#865 = SPHERICAL_SURFACE('',#866,0.135);
#866 = AXIS2_PLACEMENT_3D('',#867,#868,#869);
#867 = CARTESIAN_POINT('',(1.8,-1.2,0.135));
#868 = DIRECTION('',(0.,0.,1.));
#869 = DIRECTION('',(1.,0.,0.));
#870 = ( GEOMETRIC_REPRESENTATION_CONTEXT(3) 
GLOBAL_UNCERTAINTY_ASSIGNED_CONTEXT((#874)) GLOBAL_UNIT_ASSIGNED_CONTEXT
((#871,#872,#873)) REPRESENTATION_CONTEXT('Context #1',
  '3D Context with UNIT and UNCERTAINTY') );
#871 = ( LENGTH_UNIT() NAMED_UNIT(*) SI_UNIT(.MILLI.,.METRE.) );
#872 = ( NAMED_UNIT(*) PLANE_ANGLE_UNIT() SI_UNIT($,.RADIAN.) );
#873 = ( NAMED_UNIT(*) SI_UNIT($,.STERADIAN.) SOLID_ANGLE_UNIT() );
#874 = UNCERTAINTY_MEASURE_WITH_UNIT(LENGTH_MEASURE(1.E-07),#871,
  'distance_accuracy_value','confusion accuracy');
#875 = SHAPE_DEFINITION_REPRESENTATION(#876,#29);
#876 = PRODUCT_DEFINITION_SHAPE('','',#877);
#877 = PRODUCT_DEFINITION('design','',#878,#881);
#878 = PRODUCT_DEFINITION_FORMATION('','',#879);
#879 = PRODUCT('Array','Array','',(#880));
#880 = PRODUCT_CONTEXT('',#2,'mechanical');
#881 = PRODUCT_DEFINITION_CONTEXT('part definition',#2,'design');
#882 = CONTEXT_DEPENDENT_SHAPE_REPRESENTATION(#883,#885);
#883 = ( REPRESENTATION_RELATIONSHIP('','',#29,#10) 
REPRESENTATION_RELATIONSHIP_WITH_TRANSFORMATION(#884) 
SHAPE_REPRESENTATION_RELATIONSHIP() );
#884 = ITEM_DEFINED_TRANSFORMATION('','',#11,#15);
#885 = PRODUCT_DEFINITION_SHAPE('Placement','Placement of an item',#886
  );
#886 = NEXT_ASSEMBLY_USAGE_OCCURRENCE('1','=>[0:1:1:2]','',#5,#877,$);
#887 = PRODUCT_RELATED_PRODUCT_CATEGORY('part',$,(#879));
#888 = ADVANCED_BREP_SHAPE_REPRESENTATION('',(#11,#889),#1309);
#889 = MANIFOLD_SOLID_BREP('',#890);
#890 = CLOSED_SHELL('',(#891,#1011,#1087,#1167,#1216,#1243,#1250,#1305)
  );
#891 = ADVANCED_FACE('',(#892),#906,.F.);
#892 = FACE_BOUND('',#893,.F.);
#893 = EDGE_LOOP('',(#894,#929,#957,#985));
#894 = ORIENTED_EDGE('',*,*,#895,.F.);
#895 = EDGE_CURVE('',#896,#898,#900,.T.);
#896 = VERTEX_POINT('',#897);
#897 = CARTESIAN_POINT('',(-2.059,-1.5835,0.27));
#898 = VERTEX_POINT('',#899);
#899 = CARTESIAN_POINT('',(-2.059,-1.5835,0.69));
#900 = SURFACE_CURVE('',#901,(#905,#917),.PCURVE_S1.);
#901 = LINE('',#902,#903);
#902 = CARTESIAN_POINT('',(-2.059,-1.5835,0.27));
#903 = VECTOR('',#904,1.);
#904 = DIRECTION('',(0.,0.,1.));
#905 = PCURVE('',#906,#911);
#906 = PLANE('',#907);
#907 = AXIS2_PLACEMENT_3D('',#908,#909,#910);
#908 = CARTESIAN_POINT('',(-2.059,-1.5835,0.27));
#909 = DIRECTION('',(1.,0.,0.));
#910 = DIRECTION('',(0.,0.,1.));
#911 = DEFINITIONAL_REPRESENTATION('',(#912),#916);
#912 = LINE('',#913,#914);
#913 = CARTESIAN_POINT('',(0.,0.));
#914 = VECTOR('',#915,1.);
#915 = DIRECTION('',(1.,0.));
#916 = ( GEOMETRIC_REPRESENTATION_CONTEXT(2) 
PARAMETRIC_REPRESENTATION_CONTEXT() REPRESENTATION_CONTEXT('2D SPACE',''
  ) );
#917 = PCURVE('',#918,#923);
#918 = PLANE('',#919);
#919 = AXIS2_PLACEMENT_3D('',#920,#921,#922);
#920 = CARTESIAN_POINT('',(-2.059,-1.5835,0.27));
#921 = DIRECTION('',(0.,1.,0.));
#922 = DIRECTION('',(0.,0.,1.));
#923 = DEFINITIONAL_REPRESENTATION('',(#924),#928);
#924 = LINE('',#925,#926);
#925 = CARTESIAN_POINT('',(0.,0.));
#926 = VECTOR('',#927,1.);
#927 = DIRECTION('',(1.,0.));
#928 = ( GEOMETRIC_REPRESENTATION_CONTEXT(2) 
PARAMETRIC_REPRESENTATION_CONTEXT() REPRESENTATION_CONTEXT('2D SPACE',''
  ) );
#929 = ORIENTED_EDGE('',*,*,#930,.T.);
#930 = EDGE_CURVE('',#896,#931,#933,.T.);
#931 = VERTEX_POINT('',#932);
#932 = CARTESIAN_POINT('',(-2.059,1.5835,0.27));
#933 = SURFACE_CURVE('',#934,(#938,#945),.PCURVE_S1.);
#934 = LINE('',#935,#936);
#935 = CARTESIAN_POINT('',(-2.059,-1.5835,0.27));
#936 = VECTOR('',#937,1.);
#937 = DIRECTION('',(0.,1.,0.));
#938 = PCURVE('',#906,#939);
#939 = DEFINITIONAL_REPRESENTATION('',(#940),#944);
#940 = LINE('',#941,#942);
#941 = CARTESIAN_POINT('',(0.,0.));
#942 = VECTOR('',#943,1.);
#943 = DIRECTION('',(0.,-1.));
#944 = ( GEOMETRIC_REPRESENTATION_CONTEXT(2) 
PARAMETRIC_REPRESENTATION_CONTEXT() REPRESENTATION_CONTEXT('2D SPACE',''
  ) );
#945 = PCURVE('',#946,#951);
#946 = PLANE('',#947);
#947 = AXIS2_PLACEMENT_3D('',#948,#949,#950);
#948 = CARTESIAN_POINT('',(-2.059,-1.5835,0.27));
#949 = DIRECTION('',(0.,0.,1.));
#950 = DIRECTION('',(1.,0.,0.));
#951 = DEFINITIONAL_REPRESENTATION('',(#952),#956);
#952 = LINE('',#953,#954);
#953 = CARTESIAN_POINT('',(0.,0.));
#954 = VECTOR('',#955,1.);
#955 = DIRECTION('',(0.,1.));
#956 = ( GEOMETRIC_REPRESENTATION_CONTEXT(2) 
PARAMETRIC_REPRESENTATION_CONTEXT() REPRESENTATION_CONTEXT('2D SPACE',''
  ) );
#957 = ORIENTED_EDGE('',*,*,#958,.T.);
#958 = EDGE_CURVE('',#931,#959,#961,.T.);
#959 = VERTEX_POINT('',#960);
#960 = CARTESIAN_POINT('',(-2.059,1.5835,0.69));
#961 = SURFACE_CURVE('',#962,(#966,#973),.PCURVE_S1.);
#962 = LINE('',#963,#964);
#963 = CARTESIAN_POINT('',(-2.059,1.5835,0.27));
#964 = VECTOR('',#965,1.);
#965 = DIRECTION('',(0.,0.,1.));
#966 = PCURVE('',#906,#967);
#967 = DEFINITIONAL_REPRESENTATION('',(#968),#972);
#968 = LINE('',#969,#970);
#969 = CARTESIAN_POINT('',(0.,-3.167));
#970 = VECTOR('',#971,1.);
#971 = DIRECTION('',(1.,0.));
#972 = ( GEOMETRIC_REPRESENTATION_CONTEXT(2) 
PARAMETRIC_REPRESENTATION_CONTEXT() REPRESENTATION_CONTEXT('2D SPACE',''
  ) );
#973 = PCURVE('',#974,#979);
#974 = PLANE('',#975);
#975 = AXIS2_PLACEMENT_3D('',#976,#977,#978);
#976 = CARTESIAN_POINT('',(-2.059,1.5835,0.27));
#977 = DIRECTION('',(0.,1.,0.));
#978 = DIRECTION('',(0.,0.,1.));
#979 = DEFINITIONAL_REPRESENTATION('',(#980),#984);
#980 = LINE('',#981,#982);
#981 = CARTESIAN_POINT('',(0.,0.));
#982 = VECTOR('',#983,1.);
#983 = DIRECTION('',(1.,0.));
#984 = ( GEOMETRIC_REPRESENTATION_CONTEXT(2) 
PARAMETRIC_REPRESENTATION_CONTEXT() REPRESENTATION_CONTEXT('2D SPACE',''
  ) );
#985 = ORIENTED_EDGE('',*,*,#986,.F.);
#986 = EDGE_CURVE('',#898,#959,#987,.T.);
#987 = SURFACE_CURVE('',#988,(#992,#999),.PCURVE_S1.);
#988 = LINE('',#989,#990);
#989 = CARTESIAN_POINT('',(-2.059,-1.5835,0.69));
#990 = VECTOR('',#991,1.);
#991 = DIRECTION('',(0.,1.,0.));
#992 = PCURVE('',#906,#993);
#993 = DEFINITIONAL_REPRESENTATION('',(#994),#998);
#994 = LINE('',#995,#996);
#995 = CARTESIAN_POINT('',(0.42,0.));
#996 = VECTOR('',#997,1.);
#997 = DIRECTION('',(0.,-1.));
#998 = ( GEOMETRIC_REPRESENTATION_CONTEXT(2) 
PARAMETRIC_REPRESENTATION_CONTEXT() REPRESENTATION_CONTEXT('2D SPACE',''
  ) );
#999 = PCURVE('',#1000,#1005);
#1000 = PLANE('',#1001);
#1001 = AXIS2_PLACEMENT_3D('',#1002,#1003,#1004);
#1002 = CARTESIAN_POINT('',(-2.059,-1.5835,0.69));
#1003 = DIRECTION('',(0.,0.,1.));
#1004 = DIRECTION('',(1.,0.,0.));
#1005 = DEFINITIONAL_REPRESENTATION('',(#1006),#1010);
#1006 = LINE('',#1007,#1008);
#1007 = CARTESIAN_POINT('',(0.,0.));
#1008 = VECTOR('',#1009,1.);
#1009 = DIRECTION('',(0.,1.));
#1010 = ( GEOMETRIC_REPRESENTATION_CONTEXT(2) 
PARAMETRIC_REPRESENTATION_CONTEXT() REPRESENTATION_CONTEXT('2D SPACE',''
  ) );
#1011 = ADVANCED_FACE('',(#1012),#918,.F.);
#1012 = FACE_BOUND('',#1013,.F.);
#1013 = EDGE_LOOP('',(#1014,#1037,#1038,#1061));
#1014 = ORIENTED_EDGE('',*,*,#1015,.F.);
#1015 = EDGE_CURVE('',#896,#1016,#1018,.T.);
#1016 = VERTEX_POINT('',#1017);
#1017 = CARTESIAN_POINT('',(2.059,-1.5835,0.27));
#1018 = SURFACE_CURVE('',#1019,(#1023,#1030),.PCURVE_S1.);
#1019 = LINE('',#1020,#1021);
#1020 = CARTESIAN_POINT('',(-2.059,-1.5835,0.27));
#1021 = VECTOR('',#1022,1.);
#1022 = DIRECTION('',(1.,0.,0.));
#1023 = PCURVE('',#918,#1024);
#1024 = DEFINITIONAL_REPRESENTATION('',(#1025),#1029);
#1025 = LINE('',#1026,#1027);
#1026 = CARTESIAN_POINT('',(0.,0.));
#1027 = VECTOR('',#1028,1.);
#1028 = DIRECTION('',(0.,1.));
#1029 = ( GEOMETRIC_REPRESENTATION_CONTEXT(2) 
PARAMETRIC_REPRESENTATION_CONTEXT() REPRESENTATION_CONTEXT('2D SPACE',''
  ) );
#1030 = PCURVE('',#946,#1031);
#1031 = DEFINITIONAL_REPRESENTATION('',(#1032),#1036);
#1032 = LINE('',#1033,#1034);
#1033 = CARTESIAN_POINT('',(0.,0.));
#1034 = VECTOR('',#1035,1.);
#1035 = DIRECTION('',(1.,0.));
#1036 = ( GEOMETRIC_REPRESENTATION_CONTEXT(2) 
PARAMETRIC_REPRESENTATION_CONTEXT() REPRESENTATION_CONTEXT('2D SPACE',''
  ) );
#1037 = ORIENTED_EDGE('',*,*,#895,.T.);
#1038 = ORIENTED_EDGE('',*,*,#1039,.T.);
#1039 = EDGE_CURVE('',#898,#1040,#1042,.T.);
#1040 = VERTEX_POINT('',#1041);
#1041 = CARTESIAN_POINT('',(2.059,-1.5835,0.69));
#1042 = SURFACE_CURVE('',#1043,(#1047,#1054),.PCURVE_S1.);
#1043 = LINE('',#1044,#1045);
#1044 = CARTESIAN_POINT('',(-2.059,-1.5835,0.69));
#1045 = VECTOR('',#1046,1.);
#1046 = DIRECTION('',(1.,0.,0.));
#1047 = PCURVE('',#918,#1048);
#1048 = DEFINITIONAL_REPRESENTATION('',(#1049),#1053);
#1049 = LINE('',#1050,#1051);
#1050 = CARTESIAN_POINT('',(0.42,0.));
#1051 = VECTOR('',#1052,1.);
#1052 = DIRECTION('',(0.,1.));
#1053 = ( GEOMETRIC_REPRESENTATION_CONTEXT(2) 
PARAMETRIC_REPRESENTATION_CONTEXT() REPRESENTATION_CONTEXT('2D SPACE',''
  ) );
#1054 = PCURVE('',#1000,#1055);
#1055 = DEFINITIONAL_REPRESENTATION('',(#1056),#1060);
#1056 = LINE('',#1057,#1058);
#1057 = CARTESIAN_POINT('',(0.,0.));
#1058 = VECTOR('',#1059,1.);
#1059 = DIRECTION('',(1.,0.));
#1060 = ( GEOMETRIC_REPRESENTATION_CONTEXT(2) 
PARAMETRIC_REPRESENTATION_CONTEXT() REPRESENTATION_CONTEXT('2D SPACE',''
  ) );
#1061 = ORIENTED_EDGE('',*,*,#1062,.F.);
#1062 = EDGE_CURVE('',#1016,#1040,#1063,.T.);
#1063 = SURFACE_CURVE('',#1064,(#1068,#1075),.PCURVE_S1.);
#1064 = LINE('',#1065,#1066);
#1065 = CARTESIAN_POINT('',(2.059,-1.5835,0.27));
#1066 = VECTOR('',#1067,1.);
#1067 = DIRECTION('',(0.,0.,1.));
#1068 = PCURVE('',#918,#1069);
#1069 = DEFINITIONAL_REPRESENTATION('',(#1070),#1074);
#1070 = LINE('',#1071,#1072);
#1071 = CARTESIAN_POINT('',(0.,4.118));
#1072 = VECTOR('',#1073,1.);
#1073 = DIRECTION('',(1.,0.));
#1074 = ( GEOMETRIC_REPRESENTATION_CONTEXT(2) 
PARAMETRIC_REPRESENTATION_CONTEXT() REPRESENTATION_CONTEXT('2D SPACE',''
  ) );
#1075 = PCURVE('',#1076,#1081);
#1076 = PLANE('',#1077);
#1077 = AXIS2_PLACEMENT_3D('',#1078,#1079,#1080);
#1078 = CARTESIAN_POINT('',(2.059,-1.5835,0.27));
#1079 = DIRECTION('',(1.,0.,0.));
#1080 = DIRECTION('',(0.,0.,1.));
#1081 = DEFINITIONAL_REPRESENTATION('',(#1082),#1086);
#1082 = LINE('',#1083,#1084);
#1083 = CARTESIAN_POINT('',(0.,0.));
#1084 = VECTOR('',#1085,1.);
#1085 = DIRECTION('',(1.,0.));
#1086 = ( GEOMETRIC_REPRESENTATION_CONTEXT(2) 
PARAMETRIC_REPRESENTATION_CONTEXT() REPRESENTATION_CONTEXT('2D SPACE',''
  ) );
#1087 = ADVANCED_FACE('',(#1088,#1136),#1000,.T.);
#1088 = FACE_BOUND('',#1089,.T.);
#1089 = EDGE_LOOP('',(#1090,#1091,#1092,#1115));
#1090 = ORIENTED_EDGE('',*,*,#986,.F.);
#1091 = ORIENTED_EDGE('',*,*,#1039,.T.);
#1092 = ORIENTED_EDGE('',*,*,#1093,.T.);
#1093 = EDGE_CURVE('',#1040,#1094,#1096,.T.);
#1094 = VERTEX_POINT('',#1095);
#1095 = CARTESIAN_POINT('',(2.059,1.5835,0.69));
#1096 = SURFACE_CURVE('',#1097,(#1101,#1108),.PCURVE_S1.);
#1097 = LINE('',#1098,#1099);
#1098 = CARTESIAN_POINT('',(2.059,-1.5835,0.69));
#1099 = VECTOR('',#1100,1.);
#1100 = DIRECTION('',(0.,1.,0.));
#1101 = PCURVE('',#1000,#1102);
#1102 = DEFINITIONAL_REPRESENTATION('',(#1103),#1107);
#1103 = LINE('',#1104,#1105);
#1104 = CARTESIAN_POINT('',(4.118,0.));
#1105 = VECTOR('',#1106,1.);
#1106 = DIRECTION('',(0.,1.));
#1107 = ( GEOMETRIC_REPRESENTATION_CONTEXT(2) 
PARAMETRIC_REPRESENTATION_CONTEXT() REPRESENTATION_CONTEXT('2D SPACE',''
  ) );
#1108 = PCURVE('',#1076,#1109);
#1109 = DEFINITIONAL_REPRESENTATION('',(#1110),#1114);
#1110 = LINE('',#1111,#1112);
#1111 = CARTESIAN_POINT('',(0.42,0.));
#1112 = VECTOR('',#1113,1.);
#1113 = DIRECTION('',(0.,-1.));
#1114 = ( GEOMETRIC_REPRESENTATION_CONTEXT(2) 
PARAMETRIC_REPRESENTATION_CONTEXT() REPRESENTATION_CONTEXT('2D SPACE',''
  ) );
#1115 = ORIENTED_EDGE('',*,*,#1116,.F.);
#1116 = EDGE_CURVE('',#959,#1094,#1117,.T.);
#1117 = SURFACE_CURVE('',#1118,(#1122,#1129),.PCURVE_S1.);
#1118 = LINE('',#1119,#1120);
#1119 = CARTESIAN_POINT('',(-2.059,1.5835,0.69));
#1120 = VECTOR('',#1121,1.);
#1121 = DIRECTION('',(1.,0.,0.));
#1122 = PCURVE('',#1000,#1123);
#1123 = DEFINITIONAL_REPRESENTATION('',(#1124),#1128);
#1124 = LINE('',#1125,#1126);
#1125 = CARTESIAN_POINT('',(0.,3.167));
#1126 = VECTOR('',#1127,1.);
#1127 = DIRECTION('',(1.,0.));
#1128 = ( GEOMETRIC_REPRESENTATION_CONTEXT(2) 
PARAMETRIC_REPRESENTATION_CONTEXT() REPRESENTATION_CONTEXT('2D SPACE',''
  ) );
#1129 = PCURVE('',#974,#1130);
#1130 = DEFINITIONAL_REPRESENTATION('',(#1131),#1135);
#1131 = LINE('',#1132,#1133);
#1132 = CARTESIAN_POINT('',(0.42,0.));
#1133 = VECTOR('',#1134,1.);
#1134 = DIRECTION('',(0.,1.));
#1135 = ( GEOMETRIC_REPRESENTATION_CONTEXT(2) 
PARAMETRIC_REPRESENTATION_CONTEXT() REPRESENTATION_CONTEXT('2D SPACE',''
  ) );
#1136 = FACE_BOUND('',#1137,.T.);
#1137 = EDGE_LOOP('',(#1138));
#1138 = ORIENTED_EDGE('',*,*,#1139,.F.);
#1139 = EDGE_CURVE('',#1140,#1140,#1142,.T.);
#1140 = VERTEX_POINT('',#1141);
#1141 = CARTESIAN_POINT('',(-1.4651875,1.187625,0.69));
#1142 = SURFACE_CURVE('',#1143,(#1148,#1155),.PCURVE_S1.);
#1143 = CIRCLE('',#1144,0.1979375);
#1144 = AXIS2_PLACEMENT_3D('',#1145,#1146,#1147);
#1145 = CARTESIAN_POINT('',(-1.663125,1.187625,0.69));
#1146 = DIRECTION('',(0.,0.,1.));
#1147 = DIRECTION('',(1.,0.,0.));
#1148 = PCURVE('',#1000,#1149);
#1149 = DEFINITIONAL_REPRESENTATION('',(#1150),#1154);
#1150 = CIRCLE('',#1151,0.1979375);
#1151 = AXIS2_PLACEMENT_2D('',#1152,#1153);
#1152 = CARTESIAN_POINT('',(0.395875,2.771125));
#1153 = DIRECTION('',(1.,0.));
#1154 = ( GEOMETRIC_REPRESENTATION_CONTEXT(2) 
PARAMETRIC_REPRESENTATION_CONTEXT() REPRESENTATION_CONTEXT('2D SPACE',''
  ) );
#1155 = PCURVE('',#1156,#1161);
#1156 = CYLINDRICAL_SURFACE('',#1157,0.1979375);
#1157 = AXIS2_PLACEMENT_3D('',#1158,#1159,#1160);
#1158 = CARTESIAN_POINT('',(-1.663125,1.187625,0.621));
#1159 = DIRECTION('',(0.,0.,1.));
#1160 = DIRECTION('',(1.,0.,0.));
#1161 = DEFINITIONAL_REPRESENTATION('',(#1162),#1166);
#1162 = LINE('',#1163,#1164);
#1163 = CARTESIAN_POINT('',(0.,6.9E-02));
#1164 = VECTOR('',#1165,1.);
#1165 = DIRECTION('',(1.,0.));
#1166 = ( GEOMETRIC_REPRESENTATION_CONTEXT(2) 
PARAMETRIC_REPRESENTATION_CONTEXT() REPRESENTATION_CONTEXT('2D SPACE',''
  ) );
#1167 = ADVANCED_FACE('',(#1168),#974,.T.);
#1168 = FACE_BOUND('',#1169,.T.);
#1169 = EDGE_LOOP('',(#1170,#1193,#1194,#1195));
#1170 = ORIENTED_EDGE('',*,*,#1171,.F.);
#1171 = EDGE_CURVE('',#931,#1172,#1174,.T.);
#1172 = VERTEX_POINT('',#1173);
#1173 = CARTESIAN_POINT('',(2.059,1.5835,0.27));
#1174 = SURFACE_CURVE('',#1175,(#1179,#1186),.PCURVE_S1.);
#1175 = LINE('',#1176,#1177);
#1176 = CARTESIAN_POINT('',(-2.059,1.5835,0.27));
#1177 = VECTOR('',#1178,1.);
#1178 = DIRECTION('',(1.,0.,0.));
#1179 = PCURVE('',#974,#1180);
#1180 = DEFINITIONAL_REPRESENTATION('',(#1181),#1185);
#1181 = LINE('',#1182,#1183);
#1182 = CARTESIAN_POINT('',(0.,0.));
#1183 = VECTOR('',#1184,1.);
#1184 = DIRECTION('',(0.,1.));
#1185 = ( GEOMETRIC_REPRESENTATION_CONTEXT(2) 
PARAMETRIC_REPRESENTATION_CONTEXT() REPRESENTATION_CONTEXT('2D SPACE',''
  ) );
#1186 = PCURVE('',#946,#1187);
#1187 = DEFINITIONAL_REPRESENTATION('',(#1188),#1192);
#1188 = LINE('',#1189,#1190);
#1189 = CARTESIAN_POINT('',(0.,3.167));
#1190 = VECTOR('',#1191,1.);
#1191 = DIRECTION('',(1.,0.));
#1192 = ( GEOMETRIC_REPRESENTATION_CONTEXT(2) 
PARAMETRIC_REPRESENTATION_CONTEXT() REPRESENTATION_CONTEXT('2D SPACE',''
  ) );
#1193 = ORIENTED_EDGE('',*,*,#958,.T.);
#1194 = ORIENTED_EDGE('',*,*,#1116,.T.);
#1195 = ORIENTED_EDGE('',*,*,#1196,.F.);
#1196 = EDGE_CURVE('',#1172,#1094,#1197,.T.);
#1197 = SURFACE_CURVE('',#1198,(#1202,#1209),.PCURVE_S1.);
#1198 = LINE('',#1199,#1200);
#1199 = CARTESIAN_POINT('',(2.059,1.5835,0.27));
#1200 = VECTOR('',#1201,1.);
#1201 = DIRECTION('',(0.,0.,1.));
#1202 = PCURVE('',#974,#1203);
#1203 = DEFINITIONAL_REPRESENTATION('',(#1204),#1208);
#1204 = LINE('',#1205,#1206);
#1205 = CARTESIAN_POINT('',(0.,4.118));
#1206 = VECTOR('',#1207,1.);
#1207 = DIRECTION('',(1.,0.));
#1208 = ( GEOMETRIC_REPRESENTATION_CONTEXT(2) 
PARAMETRIC_REPRESENTATION_CONTEXT() REPRESENTATION_CONTEXT('2D SPACE',''
  ) );
#1209 = PCURVE('',#1076,#1210);
#1210 = DEFINITIONAL_REPRESENTATION('',(#1211),#1215);
#1211 = LINE('',#1212,#1213);
#1212 = CARTESIAN_POINT('',(0.,-3.167));
#1213 = VECTOR('',#1214,1.);
#1214 = DIRECTION('',(1.,0.));
#1215 = ( GEOMETRIC_REPRESENTATION_CONTEXT(2) 
PARAMETRIC_REPRESENTATION_CONTEXT() REPRESENTATION_CONTEXT('2D SPACE',''
  ) );
#1216 = ADVANCED_FACE('',(#1217),#946,.F.);
#1217 = FACE_BOUND('',#1218,.F.);
#1218 = EDGE_LOOP('',(#1219,#1220,#1221,#1242));
#1219 = ORIENTED_EDGE('',*,*,#930,.F.);
#1220 = ORIENTED_EDGE('',*,*,#1015,.T.);
#1221 = ORIENTED_EDGE('',*,*,#1222,.T.);
#1222 = EDGE_CURVE('',#1016,#1172,#1223,.T.);
#1223 = SURFACE_CURVE('',#1224,(#1228,#1235),.PCURVE_S1.);
#1224 = LINE('',#1225,#1226);
#1225 = CARTESIAN_POINT('',(2.059,-1.5835,0.27));
#1226 = VECTOR('',#1227,1.);
#1227 = DIRECTION('',(0.,1.,0.));
#1228 = PCURVE('',#946,#1229);
#1229 = DEFINITIONAL_REPRESENTATION('',(#1230),#1234);
#1230 = LINE('',#1231,#1232);
#1231 = CARTESIAN_POINT('',(4.118,0.));
#1232 = VECTOR('',#1233,1.);
#1233 = DIRECTION('',(0.,1.));
#1234 = ( GEOMETRIC_REPRESENTATION_CONTEXT(2) 
PARAMETRIC_REPRESENTATION_CONTEXT() REPRESENTATION_CONTEXT('2D SPACE',''
  ) );
#1235 = PCURVE('',#1076,#1236);
#1236 = DEFINITIONAL_REPRESENTATION('',(#1237),#1241);
#1237 = LINE('',#1238,#1239);
#1238 = CARTESIAN_POINT('',(0.,0.));
#1239 = VECTOR('',#1240,1.);
#1240 = DIRECTION('',(0.,-1.));
#1241 = ( GEOMETRIC_REPRESENTATION_CONTEXT(2) 
PARAMETRIC_REPRESENTATION_CONTEXT() REPRESENTATION_CONTEXT('2D SPACE',''
  ) );
#1242 = ORIENTED_EDGE('',*,*,#1171,.F.);
#1243 = ADVANCED_FACE('',(#1244),#1076,.T.);
#1244 = FACE_BOUND('',#1245,.T.);
#1245 = EDGE_LOOP('',(#1246,#1247,#1248,#1249));
#1246 = ORIENTED_EDGE('',*,*,#1062,.F.);
#1247 = ORIENTED_EDGE('',*,*,#1222,.T.);
#1248 = ORIENTED_EDGE('',*,*,#1196,.T.);
#1249 = ORIENTED_EDGE('',*,*,#1093,.F.);
#1250 = ADVANCED_FACE('',(#1251),#1156,.F.);
#1251 = FACE_BOUND('',#1252,.F.);
#1252 = EDGE_LOOP('',(#1253,#1276,#1277,#1278));
#1253 = ORIENTED_EDGE('',*,*,#1254,.T.);
#1254 = EDGE_CURVE('',#1255,#1140,#1257,.T.);
#1255 = VERTEX_POINT('',#1256);
#1256 = CARTESIAN_POINT('',(-1.4651875,1.187625,0.621));
#1257 = SEAM_CURVE('',#1258,(#1262,#1269),.PCURVE_S1.);
#1258 = LINE('',#1259,#1260);
#1259 = CARTESIAN_POINT('',(-1.4651875,1.187625,0.621));
#1260 = VECTOR('',#1261,1.);
#1261 = DIRECTION('',(0.,0.,1.));
#1262 = PCURVE('',#1156,#1263);
#1263 = DEFINITIONAL_REPRESENTATION('',(#1264),#1268);
#1264 = LINE('',#1265,#1266);
#1265 = CARTESIAN_POINT('',(6.28318530718,-0.));
#1266 = VECTOR('',#1267,1.);
#1267 = DIRECTION('',(0.,1.));
#1268 = ( GEOMETRIC_REPRESENTATION_CONTEXT(2) 
PARAMETRIC_REPRESENTATION_CONTEXT() REPRESENTATION_CONTEXT('2D SPACE',''
  ) );
#1269 = PCURVE('',#1156,#1270);
#1270 = DEFINITIONAL_REPRESENTATION('',(#1271),#1275);
#1271 = LINE('',#1272,#1273);
#1272 = CARTESIAN_POINT('',(0.,-0.));
#1273 = VECTOR('',#1274,1.);
#1274 = DIRECTION('',(0.,1.));
#1275 = ( GEOMETRIC_REPRESENTATION_CONTEXT(2) 
PARAMETRIC_REPRESENTATION_CONTEXT() REPRESENTATION_CONTEXT('2D SPACE',''
  ) );
#1276 = ORIENTED_EDGE('',*,*,#1139,.F.);
#1277 = ORIENTED_EDGE('',*,*,#1254,.F.);
#1278 = ORIENTED_EDGE('',*,*,#1279,.T.);
#1279 = EDGE_CURVE('',#1255,#1255,#1280,.T.);
#1280 = SURFACE_CURVE('',#1281,(#1286,#1293),.PCURVE_S1.);
#1281 = CIRCLE('',#1282,0.1979375);
#1282 = AXIS2_PLACEMENT_3D('',#1283,#1284,#1285);
#1283 = CARTESIAN_POINT('',(-1.663125,1.187625,0.621));
#1284 = DIRECTION('',(0.,0.,1.));
#1285 = DIRECTION('',(1.,0.,0.));
#1286 = PCURVE('',#1156,#1287);
#1287 = DEFINITIONAL_REPRESENTATION('',(#1288),#1292);
#1288 = LINE('',#1289,#1290);
#1289 = CARTESIAN_POINT('',(0.,0.));
#1290 = VECTOR('',#1291,1.);
#1291 = DIRECTION('',(1.,0.));
#1292 = ( GEOMETRIC_REPRESENTATION_CONTEXT(2) 
PARAMETRIC_REPRESENTATION_CONTEXT() REPRESENTATION_CONTEXT('2D SPACE',''
  ) );
#1293 = PCURVE('',#1294,#1299);
#1294 = PLANE('',#1295);
#1295 = AXIS2_PLACEMENT_3D('',#1296,#1297,#1298);
#1296 = CARTESIAN_POINT('',(-1.663125,1.187625,0.621));
#1297 = DIRECTION('',(0.,0.,1.));
#1298 = DIRECTION('',(1.,0.,0.));
#1299 = DEFINITIONAL_REPRESENTATION('',(#1300),#1304);
#1300 = CIRCLE('',#1301,0.1979375);
#1301 = AXIS2_PLACEMENT_2D('',#1302,#1303);
#1302 = CARTESIAN_POINT('',(0.,0.));
#1303 = DIRECTION('',(1.,0.));
#1304 = ( GEOMETRIC_REPRESENTATION_CONTEXT(2) 
PARAMETRIC_REPRESENTATION_CONTEXT() REPRESENTATION_CONTEXT('2D SPACE',''
  ) );
#1305 = ADVANCED_FACE('',(#1306),#1294,.T.);
#1306 = FACE_BOUND('',#1307,.F.);
#1307 = EDGE_LOOP('',(#1308));
#1308 = ORIENTED_EDGE('',*,*,#1279,.F.);
#1309 = ( GEOMETRIC_REPRESENTATION_CONTEXT(3) 
GLOBAL_UNCERTAINTY_ASSIGNED_CONTEXT((#1313)) 
GLOBAL_UNIT_ASSIGNED_CONTEXT((#1310,#1311,#1312)) REPRESENTATION_CONTEXT
('Context #1','3D Context with UNIT and UNCERTAINTY') );
#1310 = ( LENGTH_UNIT() NAMED_UNIT(*) SI_UNIT(.MILLI.,.METRE.) );
#1311 = ( NAMED_UNIT(*) PLANE_ANGLE_UNIT() SI_UNIT($,.RADIAN.) );
#1312 = ( NAMED_UNIT(*) SI_UNIT($,.STERADIAN.) SOLID_ANGLE_UNIT() );
#1313 = UNCERTAINTY_MEASURE_WITH_UNIT(LENGTH_MEASURE(1.E-07),#1310,
  'distance_accuracy_value','confusion accuracy');
#1314 = SHAPE_DEFINITION_REPRESENTATION(#1315,#888);
#1315 = PRODUCT_DEFINITION_SHAPE('','',#1316);
#1316 = PRODUCT_DEFINITION('design','',#1317,#1320);
#1317 = PRODUCT_DEFINITION_FORMATION('','',#1318);
#1318 = PRODUCT('Body','Body','',(#1319));
#1319 = PRODUCT_CONTEXT('',#2,'mechanical');
#1320 = PRODUCT_DEFINITION_CONTEXT('part definition',#2,'design');
#1321 = CONTEXT_DEPENDENT_SHAPE_REPRESENTATION(#1322,#1324);
#1322 = ( REPRESENTATION_RELATIONSHIP('','',#888,#10) 
REPRESENTATION_RELATIONSHIP_WITH_TRANSFORMATION(#1323) 
SHAPE_REPRESENTATION_RELATIONSHIP() );
#1323 = ITEM_DEFINED_TRANSFORMATION('','',#11,#19);
#1324 = PRODUCT_DEFINITION_SHAPE('Placement','Placement of an item',
  #1325);
#1325 = NEXT_ASSEMBLY_USAGE_OCCURRENCE('2','=>[0:1:1:3]','',#5,#1316,$);
#1326 = PRODUCT_RELATED_PRODUCT_CATEGORY('part',$,(#1318));
#1327 = MECHANICAL_DESIGN_GEOMETRIC_PRESENTATION_REPRESENTATION('',(
    #1328,#1338,#1347,#1356,#1365,#1374,#1383,#1392,#1401,#1410,#1419,
    #1428,#1437,#1446,#1455,#1464,#1473,#1482,#1491,#1500,#1509,#1518,
    #1527,#1536,#1545,#1554,#1563,#1572,#1581,#1590,#1599,#1608,#1617,
    #1626,#1635,#1644,#1653,#1662,#1671,#1680,#1689,#1698,#1707,#1716,
    #1725,#1734,#1743,#1752,#1761,#1770,#1779,#1788,#1797,#1806,#1815,
    #1824,#1833,#1842,#1851,#1860,#1869,#1878,#1887,#1896,#1905,#1914,
    #1923,#1932,#1941,#1950),#870);
#1328 = STYLED_ITEM('color',(#1329),#30);
#1329 = PRESENTATION_STYLE_ASSIGNMENT((#1330,#1336));
#1330 = SURFACE_STYLE_USAGE(.BOTH.,#1331);
#1331 = SURFACE_SIDE_STYLE('',(#1332));
#1332 = SURFACE_STYLE_FILL_AREA(#1333);
#1333 = FILL_AREA_STYLE('',(#1334));
#1334 = FILL_AREA_STYLE_COLOUR('',#1335);
#1335 = COLOUR_RGB('',0.73400002718,0.773000001907,0.79699999094);
#1336 = CURVE_STYLE('',#1337,POSITIVE_LENGTH_MEASURE(0.1),#1335);
#1337 = DRAUGHTING_PRE_DEFINED_CURVE_FONT('continuous');
#1338 = STYLED_ITEM('color',(#1339),#42);
#1339 = PRESENTATION_STYLE_ASSIGNMENT((#1340,#1345));
#1340 = SURFACE_STYLE_USAGE(.BOTH.,#1341);
#1341 = SURFACE_SIDE_STYLE('',(#1342));
#1342 = SURFACE_STYLE_FILL_AREA(#1343);
#1343 = FILL_AREA_STYLE('',(#1344));
#1344 = FILL_AREA_STYLE_COLOUR('',#1335);
#1345 = CURVE_STYLE('',#1346,POSITIVE_LENGTH_MEASURE(0.1),#1335);
#1346 = DRAUGHTING_PRE_DEFINED_CURVE_FONT('continuous');
#1347 = STYLED_ITEM('color',(#1348),#54);
#1348 = PRESENTATION_STYLE_ASSIGNMENT((#1349,#1354));
#1349 = SURFACE_STYLE_USAGE(.BOTH.,#1350);
#1350 = SURFACE_SIDE_STYLE('',(#1351));
#1351 = SURFACE_STYLE_FILL_AREA(#1352);
#1352 = FILL_AREA_STYLE('',(#1353));
#1353 = FILL_AREA_STYLE_COLOUR('',#1335);
#1354 = CURVE_STYLE('',#1355,POSITIVE_LENGTH_MEASURE(0.1),#1335);
#1355 = DRAUGHTING_PRE_DEFINED_CURVE_FONT('continuous');
#1356 = STYLED_ITEM('color',(#1357),#66);
#1357 = PRESENTATION_STYLE_ASSIGNMENT((#1358,#1363));
#1358 = SURFACE_STYLE_USAGE(.BOTH.,#1359);
#1359 = SURFACE_SIDE_STYLE('',(#1360));
#1360 = SURFACE_STYLE_FILL_AREA(#1361);
#1361 = FILL_AREA_STYLE('',(#1362));
#1362 = FILL_AREA_STYLE_COLOUR('',#1335);
#1363 = CURVE_STYLE('',#1364,POSITIVE_LENGTH_MEASURE(0.1),#1335);
#1364 = DRAUGHTING_PRE_DEFINED_CURVE_FONT('continuous');
#1365 = STYLED_ITEM('color',(#1366),#78);
#1366 = PRESENTATION_STYLE_ASSIGNMENT((#1367,#1372));
#1367 = SURFACE_STYLE_USAGE(.BOTH.,#1368);
#1368 = SURFACE_SIDE_STYLE('',(#1369));
#1369 = SURFACE_STYLE_FILL_AREA(#1370);
#1370 = FILL_AREA_STYLE('',(#1371));
#1371 = FILL_AREA_STYLE_COLOUR('',#1335);
#1372 = CURVE_STYLE('',#1373,POSITIVE_LENGTH_MEASURE(0.1),#1335);
#1373 = DRAUGHTING_PRE_DEFINED_CURVE_FONT('continuous');
#1374 = STYLED_ITEM('color',(#1375),#90);
#1375 = PRESENTATION_STYLE_ASSIGNMENT((#1376,#1381));
#1376 = SURFACE_STYLE_USAGE(.BOTH.,#1377);
#1377 = SURFACE_SIDE_STYLE('',(#1378));
#1378 = SURFACE_STYLE_FILL_AREA(#1379);
#1379 = FILL_AREA_STYLE('',(#1380));
#1380 = FILL_AREA_STYLE_COLOUR('',#1335);
#1381 = CURVE_STYLE('',#1382,POSITIVE_LENGTH_MEASURE(0.1),#1335);
#1382 = DRAUGHTING_PRE_DEFINED_CURVE_FONT('continuous');
#1383 = STYLED_ITEM('color',(#1384),#102);
#1384 = PRESENTATION_STYLE_ASSIGNMENT((#1385,#1390));
#1385 = SURFACE_STYLE_USAGE(.BOTH.,#1386);
#1386 = SURFACE_SIDE_STYLE('',(#1387));
#1387 = SURFACE_STYLE_FILL_AREA(#1388);
#1388 = FILL_AREA_STYLE('',(#1389));
#1389 = FILL_AREA_STYLE_COLOUR('',#1335);
#1390 = CURVE_STYLE('',#1391,POSITIVE_LENGTH_MEASURE(0.1),#1335);
#1391 = DRAUGHTING_PRE_DEFINED_CURVE_FONT('continuous');
#1392 = STYLED_ITEM('color',(#1393),#114);
#1393 = PRESENTATION_STYLE_ASSIGNMENT((#1394,#1399));
#1394 = SURFACE_STYLE_USAGE(.BOTH.,#1395);
#1395 = SURFACE_SIDE_STYLE('',(#1396));
#1396 = SURFACE_STYLE_FILL_AREA(#1397);
#1397 = FILL_AREA_STYLE('',(#1398));
#1398 = FILL_AREA_STYLE_COLOUR('',#1335);
#1399 = CURVE_STYLE('',#1400,POSITIVE_LENGTH_MEASURE(0.1),#1335);
#1400 = DRAUGHTING_PRE_DEFINED_CURVE_FONT('continuous');
#1401 = STYLED_ITEM('color',(#1402),#126);
#1402 = PRESENTATION_STYLE_ASSIGNMENT((#1403,#1408));
#1403 = SURFACE_STYLE_USAGE(.BOTH.,#1404);
#1404 = SURFACE_SIDE_STYLE('',(#1405));
#1405 = SURFACE_STYLE_FILL_AREA(#1406);
#1406 = FILL_AREA_STYLE('',(#1407));
#1407 = FILL_AREA_STYLE_COLOUR('',#1335);
#1408 = CURVE_STYLE('',#1409,POSITIVE_LENGTH_MEASURE(0.1),#1335);
#1409 = DRAUGHTING_PRE_DEFINED_CURVE_FONT('continuous');
#1410 = STYLED_ITEM('color',(#1411),#138);
#1411 = PRESENTATION_STYLE_ASSIGNMENT((#1412,#1417));
#1412 = SURFACE_STYLE_USAGE(.BOTH.,#1413);
#1413 = SURFACE_SIDE_STYLE('',(#1414));
#1414 = SURFACE_STYLE_FILL_AREA(#1415);
#1415 = FILL_AREA_STYLE('',(#1416));
#1416 = FILL_AREA_STYLE_COLOUR('',#1335);
#1417 = CURVE_STYLE('',#1418,POSITIVE_LENGTH_MEASURE(0.1),#1335);
#1418 = DRAUGHTING_PRE_DEFINED_CURVE_FONT('continuous');
#1419 = STYLED_ITEM('color',(#1420),#150);
#1420 = PRESENTATION_STYLE_ASSIGNMENT((#1421,#1426));
#1421 = SURFACE_STYLE_USAGE(.BOTH.,#1422);
#1422 = SURFACE_SIDE_STYLE('',(#1423));
#1423 = SURFACE_STYLE_FILL_AREA(#1424);
#1424 = FILL_AREA_STYLE('',(#1425));
#1425 = FILL_AREA_STYLE_COLOUR('',#1335);
#1426 = CURVE_STYLE('',#1427,POSITIVE_LENGTH_MEASURE(0.1),#1335);
#1427 = DRAUGHTING_PRE_DEFINED_CURVE_FONT('continuous');
#1428 = STYLED_ITEM('color',(#1429),#162);
#1429 = PRESENTATION_STYLE_ASSIGNMENT((#1430,#1435));
#1430 = SURFACE_STYLE_USAGE(.BOTH.,#1431);
#1431 = SURFACE_SIDE_STYLE('',(#1432));
#1432 = SURFACE_STYLE_FILL_AREA(#1433);
#1433 = FILL_AREA_STYLE('',(#1434));
#1434 = FILL_AREA_STYLE_COLOUR('',#1335);
#1435 = CURVE_STYLE('',#1436,POSITIVE_LENGTH_MEASURE(0.1),#1335);
#1436 = DRAUGHTING_PRE_DEFINED_CURVE_FONT('continuous');
#1437 = STYLED_ITEM('color',(#1438),#174);
#1438 = PRESENTATION_STYLE_ASSIGNMENT((#1439,#1444));
#1439 = SURFACE_STYLE_USAGE(.BOTH.,#1440);
#1440 = SURFACE_SIDE_STYLE('',(#1441));
#1441 = SURFACE_STYLE_FILL_AREA(#1442);
#1442 = FILL_AREA_STYLE('',(#1443));
#1443 = FILL_AREA_STYLE_COLOUR('',#1335);
#1444 = CURVE_STYLE('',#1445,POSITIVE_LENGTH_MEASURE(0.1),#1335);
#1445 = DRAUGHTING_PRE_DEFINED_CURVE_FONT('continuous');
#1446 = STYLED_ITEM('color',(#1447),#186);
#1447 = PRESENTATION_STYLE_ASSIGNMENT((#1448,#1453));
#1448 = SURFACE_STYLE_USAGE(.BOTH.,#1449);
#1449 = SURFACE_SIDE_STYLE('',(#1450));
#1450 = SURFACE_STYLE_FILL_AREA(#1451);
#1451 = FILL_AREA_STYLE('',(#1452));
#1452 = FILL_AREA_STYLE_COLOUR('',#1335);
#1453 = CURVE_STYLE('',#1454,POSITIVE_LENGTH_MEASURE(0.1),#1335);
#1454 = DRAUGHTING_PRE_DEFINED_CURVE_FONT('continuous');
#1455 = STYLED_ITEM('color',(#1456),#198);
#1456 = PRESENTATION_STYLE_ASSIGNMENT((#1457,#1462));
#1457 = SURFACE_STYLE_USAGE(.BOTH.,#1458);
#1458 = SURFACE_SIDE_STYLE('',(#1459));
#1459 = SURFACE_STYLE_FILL_AREA(#1460);
#1460 = FILL_AREA_STYLE('',(#1461));
#1461 = FILL_AREA_STYLE_COLOUR('',#1335);
#1462 = CURVE_STYLE('',#1463,POSITIVE_LENGTH_MEASURE(0.1),#1335);
#1463 = DRAUGHTING_PRE_DEFINED_CURVE_FONT('continuous');
#1464 = STYLED_ITEM('color',(#1465),#210);
#1465 = PRESENTATION_STYLE_ASSIGNMENT((#1466,#1471));
#1466 = SURFACE_STYLE_USAGE(.BOTH.,#1467);
#1467 = SURFACE_SIDE_STYLE('',(#1468));
#1468 = SURFACE_STYLE_FILL_AREA(#1469);
#1469 = FILL_AREA_STYLE('',(#1470));
#1470 = FILL_AREA_STYLE_COLOUR('',#1335);
#1471 = CURVE_STYLE('',#1472,POSITIVE_LENGTH_MEASURE(0.1),#1335);
#1472 = DRAUGHTING_PRE_DEFINED_CURVE_FONT('continuous');
#1473 = STYLED_ITEM('color',(#1474),#222);
#1474 = PRESENTATION_STYLE_ASSIGNMENT((#1475,#1480));
#1475 = SURFACE_STYLE_USAGE(.BOTH.,#1476);
#1476 = SURFACE_SIDE_STYLE('',(#1477));
#1477 = SURFACE_STYLE_FILL_AREA(#1478);
#1478 = FILL_AREA_STYLE('',(#1479));
#1479 = FILL_AREA_STYLE_COLOUR('',#1335);
#1480 = CURVE_STYLE('',#1481,POSITIVE_LENGTH_MEASURE(0.1),#1335);
#1481 = DRAUGHTING_PRE_DEFINED_CURVE_FONT('continuous');
#1482 = STYLED_ITEM('color',(#1483),#234);
#1483 = PRESENTATION_STYLE_ASSIGNMENT((#1484,#1489));
#1484 = SURFACE_STYLE_USAGE(.BOTH.,#1485);
#1485 = SURFACE_SIDE_STYLE('',(#1486));
#1486 = SURFACE_STYLE_FILL_AREA(#1487);
#1487 = FILL_AREA_STYLE('',(#1488));
#1488 = FILL_AREA_STYLE_COLOUR('',#1335);
#1489 = CURVE_STYLE('',#1490,POSITIVE_LENGTH_MEASURE(0.1),#1335);
#1490 = DRAUGHTING_PRE_DEFINED_CURVE_FONT('continuous');
#1491 = STYLED_ITEM('color',(#1492),#246);
#1492 = PRESENTATION_STYLE_ASSIGNMENT((#1493,#1498));
#1493 = SURFACE_STYLE_USAGE(.BOTH.,#1494);
#1494 = SURFACE_SIDE_STYLE('',(#1495));
#1495 = SURFACE_STYLE_FILL_AREA(#1496);
#1496 = FILL_AREA_STYLE('',(#1497));
#1497 = FILL_AREA_STYLE_COLOUR('',#1335);
#1498 = CURVE_STYLE('',#1499,POSITIVE_LENGTH_MEASURE(0.1),#1335);
#1499 = DRAUGHTING_PRE_DEFINED_CURVE_FONT('continuous');
#1500 = STYLED_ITEM('color',(#1501),#258);
#1501 = PRESENTATION_STYLE_ASSIGNMENT((#1502,#1507));
#1502 = SURFACE_STYLE_USAGE(.BOTH.,#1503);
#1503 = SURFACE_SIDE_STYLE('',(#1504));
#1504 = SURFACE_STYLE_FILL_AREA(#1505);
#1505 = FILL_AREA_STYLE('',(#1506));
#1506 = FILL_AREA_STYLE_COLOUR('',#1335);
#1507 = CURVE_STYLE('',#1508,POSITIVE_LENGTH_MEASURE(0.1),#1335);
#1508 = DRAUGHTING_PRE_DEFINED_CURVE_FONT('continuous');
#1509 = STYLED_ITEM('color',(#1510),#270);
#1510 = PRESENTATION_STYLE_ASSIGNMENT((#1511,#1516));
#1511 = SURFACE_STYLE_USAGE(.BOTH.,#1512);
#1512 = SURFACE_SIDE_STYLE('',(#1513));
#1513 = SURFACE_STYLE_FILL_AREA(#1514);
#1514 = FILL_AREA_STYLE('',(#1515));
#1515 = FILL_AREA_STYLE_COLOUR('',#1335);
#1516 = CURVE_STYLE('',#1517,POSITIVE_LENGTH_MEASURE(0.1),#1335);
#1517 = DRAUGHTING_PRE_DEFINED_CURVE_FONT('continuous');
#1518 = STYLED_ITEM('color',(#1519),#282);
#1519 = PRESENTATION_STYLE_ASSIGNMENT((#1520,#1525));
#1520 = SURFACE_STYLE_USAGE(.BOTH.,#1521);
#1521 = SURFACE_SIDE_STYLE('',(#1522));
#1522 = SURFACE_STYLE_FILL_AREA(#1523);
#1523 = FILL_AREA_STYLE('',(#1524));
#1524 = FILL_AREA_STYLE_COLOUR('',#1335);
#1525 = CURVE_STYLE('',#1526,POSITIVE_LENGTH_MEASURE(0.1),#1335);
#1526 = DRAUGHTING_PRE_DEFINED_CURVE_FONT('continuous');
#1527 = STYLED_ITEM('color',(#1528),#294);
#1528 = PRESENTATION_STYLE_ASSIGNMENT((#1529,#1534));
#1529 = SURFACE_STYLE_USAGE(.BOTH.,#1530);
#1530 = SURFACE_SIDE_STYLE('',(#1531));
#1531 = SURFACE_STYLE_FILL_AREA(#1532);
#1532 = FILL_AREA_STYLE('',(#1533));
#1533 = FILL_AREA_STYLE_COLOUR('',#1335);
#1534 = CURVE_STYLE('',#1535,POSITIVE_LENGTH_MEASURE(0.1),#1335);
#1535 = DRAUGHTING_PRE_DEFINED_CURVE_FONT('continuous');
#1536 = STYLED_ITEM('color',(#1537),#306);
#1537 = PRESENTATION_STYLE_ASSIGNMENT((#1538,#1543));
#1538 = SURFACE_STYLE_USAGE(.BOTH.,#1539);
#1539 = SURFACE_SIDE_STYLE('',(#1540));
#1540 = SURFACE_STYLE_FILL_AREA(#1541);
#1541 = FILL_AREA_STYLE('',(#1542));
#1542 = FILL_AREA_STYLE_COLOUR('',#1335);
#1543 = CURVE_STYLE('',#1544,POSITIVE_LENGTH_MEASURE(0.1),#1335);
#1544 = DRAUGHTING_PRE_DEFINED_CURVE_FONT('continuous');
#1545 = STYLED_ITEM('color',(#1546),#318);
#1546 = PRESENTATION_STYLE_ASSIGNMENT((#1547,#1552));
#1547 = SURFACE_STYLE_USAGE(.BOTH.,#1548);
#1548 = SURFACE_SIDE_STYLE('',(#1549));
#1549 = SURFACE_STYLE_FILL_AREA(#1550);
#1550 = FILL_AREA_STYLE('',(#1551));
#1551 = FILL_AREA_STYLE_COLOUR('',#1335);
#1552 = CURVE_STYLE('',#1553,POSITIVE_LENGTH_MEASURE(0.1),#1335);
#1553 = DRAUGHTING_PRE_DEFINED_CURVE_FONT('continuous');
#1554 = STYLED_ITEM('color',(#1555),#330);
#1555 = PRESENTATION_STYLE_ASSIGNMENT((#1556,#1561));
#1556 = SURFACE_STYLE_USAGE(.BOTH.,#1557);
#1557 = SURFACE_SIDE_STYLE('',(#1558));
#1558 = SURFACE_STYLE_FILL_AREA(#1559);
#1559 = FILL_AREA_STYLE('',(#1560));
#1560 = FILL_AREA_STYLE_COLOUR('',#1335);
#1561 = CURVE_STYLE('',#1562,POSITIVE_LENGTH_MEASURE(0.1),#1335);
#1562 = DRAUGHTING_PRE_DEFINED_CURVE_FONT('continuous');
#1563 = STYLED_ITEM('color',(#1564),#342);
#1564 = PRESENTATION_STYLE_ASSIGNMENT((#1565,#1570));
#1565 = SURFACE_STYLE_USAGE(.BOTH.,#1566);
#1566 = SURFACE_SIDE_STYLE('',(#1567));
#1567 = SURFACE_STYLE_FILL_AREA(#1568);
#1568 = FILL_AREA_STYLE('',(#1569));
#1569 = FILL_AREA_STYLE_COLOUR('',#1335);
#1570 = CURVE_STYLE('',#1571,POSITIVE_LENGTH_MEASURE(0.1),#1335);
#1571 = DRAUGHTING_PRE_DEFINED_CURVE_FONT('continuous');
#1572 = STYLED_ITEM('color',(#1573),#354);
#1573 = PRESENTATION_STYLE_ASSIGNMENT((#1574,#1579));
#1574 = SURFACE_STYLE_USAGE(.BOTH.,#1575);
#1575 = SURFACE_SIDE_STYLE('',(#1576));
#1576 = SURFACE_STYLE_FILL_AREA(#1577);
#1577 = FILL_AREA_STYLE('',(#1578));
#1578 = FILL_AREA_STYLE_COLOUR('',#1335);
#1579 = CURVE_STYLE('',#1580,POSITIVE_LENGTH_MEASURE(0.1),#1335);
#1580 = DRAUGHTING_PRE_DEFINED_CURVE_FONT('continuous');
#1581 = STYLED_ITEM('color',(#1582),#366);
#1582 = PRESENTATION_STYLE_ASSIGNMENT((#1583,#1588));
#1583 = SURFACE_STYLE_USAGE(.BOTH.,#1584);
#1584 = SURFACE_SIDE_STYLE('',(#1585));
#1585 = SURFACE_STYLE_FILL_AREA(#1586);
#1586 = FILL_AREA_STYLE('',(#1587));
#1587 = FILL_AREA_STYLE_COLOUR('',#1335);
#1588 = CURVE_STYLE('',#1589,POSITIVE_LENGTH_MEASURE(0.1),#1335);
#1589 = DRAUGHTING_PRE_DEFINED_CURVE_FONT('continuous');
#1590 = STYLED_ITEM('color',(#1591),#378);
#1591 = PRESENTATION_STYLE_ASSIGNMENT((#1592,#1597));
#1592 = SURFACE_STYLE_USAGE(.BOTH.,#1593);
#1593 = SURFACE_SIDE_STYLE('',(#1594));
#1594 = SURFACE_STYLE_FILL_AREA(#1595);
#1595 = FILL_AREA_STYLE('',(#1596));
#1596 = FILL_AREA_STYLE_COLOUR('',#1335);
#1597 = CURVE_STYLE('',#1598,POSITIVE_LENGTH_MEASURE(0.1),#1335);
#1598 = DRAUGHTING_PRE_DEFINED_CURVE_FONT('continuous');
#1599 = STYLED_ITEM('color',(#1600),#390);
#1600 = PRESENTATION_STYLE_ASSIGNMENT((#1601,#1606));
#1601 = SURFACE_STYLE_USAGE(.BOTH.,#1602);
#1602 = SURFACE_SIDE_STYLE('',(#1603));
#1603 = SURFACE_STYLE_FILL_AREA(#1604);
#1604 = FILL_AREA_STYLE('',(#1605));
#1605 = FILL_AREA_STYLE_COLOUR('',#1335);
#1606 = CURVE_STYLE('',#1607,POSITIVE_LENGTH_MEASURE(0.1),#1335);
#1607 = DRAUGHTING_PRE_DEFINED_CURVE_FONT('continuous');
#1608 = STYLED_ITEM('color',(#1609),#402);
#1609 = PRESENTATION_STYLE_ASSIGNMENT((#1610,#1615));
#1610 = SURFACE_STYLE_USAGE(.BOTH.,#1611);
#1611 = SURFACE_SIDE_STYLE('',(#1612));
#1612 = SURFACE_STYLE_FILL_AREA(#1613);
#1613 = FILL_AREA_STYLE('',(#1614));
#1614 = FILL_AREA_STYLE_COLOUR('',#1335);
#1615 = CURVE_STYLE('',#1616,POSITIVE_LENGTH_MEASURE(0.1),#1335);
#1616 = DRAUGHTING_PRE_DEFINED_CURVE_FONT('continuous');
#1617 = STYLED_ITEM('color',(#1618),#414);
#1618 = PRESENTATION_STYLE_ASSIGNMENT((#1619,#1624));
#1619 = SURFACE_STYLE_USAGE(.BOTH.,#1620);
#1620 = SURFACE_SIDE_STYLE('',(#1621));
#1621 = SURFACE_STYLE_FILL_AREA(#1622);
#1622 = FILL_AREA_STYLE('',(#1623));
#1623 = FILL_AREA_STYLE_COLOUR('',#1335);
#1624 = CURVE_STYLE('',#1625,POSITIVE_LENGTH_MEASURE(0.1),#1335);
#1625 = DRAUGHTING_PRE_DEFINED_CURVE_FONT('continuous');
#1626 = STYLED_ITEM('color',(#1627),#426);
#1627 = PRESENTATION_STYLE_ASSIGNMENT((#1628,#1633));
#1628 = SURFACE_STYLE_USAGE(.BOTH.,#1629);
#1629 = SURFACE_SIDE_STYLE('',(#1630));
#1630 = SURFACE_STYLE_FILL_AREA(#1631);
#1631 = FILL_AREA_STYLE('',(#1632));
#1632 = FILL_AREA_STYLE_COLOUR('',#1335);
#1633 = CURVE_STYLE('',#1634,POSITIVE_LENGTH_MEASURE(0.1),#1335);
#1634 = DRAUGHTING_PRE_DEFINED_CURVE_FONT('continuous');
#1635 = STYLED_ITEM('color',(#1636),#438);
#1636 = PRESENTATION_STYLE_ASSIGNMENT((#1637,#1642));
#1637 = SURFACE_STYLE_USAGE(.BOTH.,#1638);
#1638 = SURFACE_SIDE_STYLE('',(#1639));
#1639 = SURFACE_STYLE_FILL_AREA(#1640);
#1640 = FILL_AREA_STYLE('',(#1641));
#1641 = FILL_AREA_STYLE_COLOUR('',#1335);
#1642 = CURVE_STYLE('',#1643,POSITIVE_LENGTH_MEASURE(0.1),#1335);
#1643 = DRAUGHTING_PRE_DEFINED_CURVE_FONT('continuous');
#1644 = STYLED_ITEM('color',(#1645),#450);
#1645 = PRESENTATION_STYLE_ASSIGNMENT((#1646,#1651));
#1646 = SURFACE_STYLE_USAGE(.BOTH.,#1647);
#1647 = SURFACE_SIDE_STYLE('',(#1648));
#1648 = SURFACE_STYLE_FILL_AREA(#1649);
#1649 = FILL_AREA_STYLE('',(#1650));
#1650 = FILL_AREA_STYLE_COLOUR('',#1335);
#1651 = CURVE_STYLE('',#1652,POSITIVE_LENGTH_MEASURE(0.1),#1335);
#1652 = DRAUGHTING_PRE_DEFINED_CURVE_FONT('continuous');
#1653 = STYLED_ITEM('color',(#1654),#462);
#1654 = PRESENTATION_STYLE_ASSIGNMENT((#1655,#1660));
#1655 = SURFACE_STYLE_USAGE(.BOTH.,#1656);
#1656 = SURFACE_SIDE_STYLE('',(#1657));
#1657 = SURFACE_STYLE_FILL_AREA(#1658);
#1658 = FILL_AREA_STYLE('',(#1659));
#1659 = FILL_AREA_STYLE_COLOUR('',#1335);
#1660 = CURVE_STYLE('',#1661,POSITIVE_LENGTH_MEASURE(0.1),#1335);
#1661 = DRAUGHTING_PRE_DEFINED_CURVE_FONT('continuous');
#1662 = STYLED_ITEM('color',(#1663),#474);
#1663 = PRESENTATION_STYLE_ASSIGNMENT((#1664,#1669));
#1664 = SURFACE_STYLE_USAGE(.BOTH.,#1665);
#1665 = SURFACE_SIDE_STYLE('',(#1666));
#1666 = SURFACE_STYLE_FILL_AREA(#1667);
#1667 = FILL_AREA_STYLE('',(#1668));
#1668 = FILL_AREA_STYLE_COLOUR('',#1335);
#1669 = CURVE_STYLE('',#1670,POSITIVE_LENGTH_MEASURE(0.1),#1335);
#1670 = DRAUGHTING_PRE_DEFINED_CURVE_FONT('continuous');
#1671 = STYLED_ITEM('color',(#1672),#486);
#1672 = PRESENTATION_STYLE_ASSIGNMENT((#1673,#1678));
#1673 = SURFACE_STYLE_USAGE(.BOTH.,#1674);
#1674 = SURFACE_SIDE_STYLE('',(#1675));
#1675 = SURFACE_STYLE_FILL_AREA(#1676);
#1676 = FILL_AREA_STYLE('',(#1677));
#1677 = FILL_AREA_STYLE_COLOUR('',#1335);
#1678 = CURVE_STYLE('',#1679,POSITIVE_LENGTH_MEASURE(0.1),#1335);
#1679 = DRAUGHTING_PRE_DEFINED_CURVE_FONT('continuous');
#1680 = STYLED_ITEM('color',(#1681),#498);
#1681 = PRESENTATION_STYLE_ASSIGNMENT((#1682,#1687));
#1682 = SURFACE_STYLE_USAGE(.BOTH.,#1683);
#1683 = SURFACE_SIDE_STYLE('',(#1684));
#1684 = SURFACE_STYLE_FILL_AREA(#1685);
#1685 = FILL_AREA_STYLE('',(#1686));
#1686 = FILL_AREA_STYLE_COLOUR('',#1335);
#1687 = CURVE_STYLE('',#1688,POSITIVE_LENGTH_MEASURE(0.1),#1335);
#1688 = DRAUGHTING_PRE_DEFINED_CURVE_FONT('continuous');
#1689 = STYLED_ITEM('color',(#1690),#510);
#1690 = PRESENTATION_STYLE_ASSIGNMENT((#1691,#1696));
#1691 = SURFACE_STYLE_USAGE(.BOTH.,#1692);
#1692 = SURFACE_SIDE_STYLE('',(#1693));
#1693 = SURFACE_STYLE_FILL_AREA(#1694);
#1694 = FILL_AREA_STYLE('',(#1695));
#1695 = FILL_AREA_STYLE_COLOUR('',#1335);
#1696 = CURVE_STYLE('',#1697,POSITIVE_LENGTH_MEASURE(0.1),#1335);
#1697 = DRAUGHTING_PRE_DEFINED_CURVE_FONT('continuous');
#1698 = STYLED_ITEM('color',(#1699),#522);
#1699 = PRESENTATION_STYLE_ASSIGNMENT((#1700,#1705));
#1700 = SURFACE_STYLE_USAGE(.BOTH.,#1701);
#1701 = SURFACE_SIDE_STYLE('',(#1702));
#1702 = SURFACE_STYLE_FILL_AREA(#1703);
#1703 = FILL_AREA_STYLE('',(#1704));
#1704 = FILL_AREA_STYLE_COLOUR('',#1335);
#1705 = CURVE_STYLE('',#1706,POSITIVE_LENGTH_MEASURE(0.1),#1335);
#1706 = DRAUGHTING_PRE_DEFINED_CURVE_FONT('continuous');
#1707 = STYLED_ITEM('color',(#1708),#534);
#1708 = PRESENTATION_STYLE_ASSIGNMENT((#1709,#1714));
#1709 = SURFACE_STYLE_USAGE(.BOTH.,#1710);
#1710 = SURFACE_SIDE_STYLE('',(#1711));
#1711 = SURFACE_STYLE_FILL_AREA(#1712);
#1712 = FILL_AREA_STYLE('',(#1713));
#1713 = FILL_AREA_STYLE_COLOUR('',#1335);
#1714 = CURVE_STYLE('',#1715,POSITIVE_LENGTH_MEASURE(0.1),#1335);
#1715 = DRAUGHTING_PRE_DEFINED_CURVE_FONT('continuous');
#1716 = STYLED_ITEM('color',(#1717),#546);
#1717 = PRESENTATION_STYLE_ASSIGNMENT((#1718,#1723));
#1718 = SURFACE_STYLE_USAGE(.BOTH.,#1719);
#1719 = SURFACE_SIDE_STYLE('',(#1720));
#1720 = SURFACE_STYLE_FILL_AREA(#1721);
#1721 = FILL_AREA_STYLE('',(#1722));
#1722 = FILL_AREA_STYLE_COLOUR('',#1335);
#1723 = CURVE_STYLE('',#1724,POSITIVE_LENGTH_MEASURE(0.1),#1335);
#1724 = DRAUGHTING_PRE_DEFINED_CURVE_FONT('continuous');
#1725 = STYLED_ITEM('color',(#1726),#558);
#1726 = PRESENTATION_STYLE_ASSIGNMENT((#1727,#1732));
#1727 = SURFACE_STYLE_USAGE(.BOTH.,#1728);
#1728 = SURFACE_SIDE_STYLE('',(#1729));
#1729 = SURFACE_STYLE_FILL_AREA(#1730);
#1730 = FILL_AREA_STYLE('',(#1731));
#1731 = FILL_AREA_STYLE_COLOUR('',#1335);
#1732 = CURVE_STYLE('',#1733,POSITIVE_LENGTH_MEASURE(0.1),#1335);
#1733 = DRAUGHTING_PRE_DEFINED_CURVE_FONT('continuous');
#1734 = STYLED_ITEM('color',(#1735),#570);
#1735 = PRESENTATION_STYLE_ASSIGNMENT((#1736,#1741));
#1736 = SURFACE_STYLE_USAGE(.BOTH.,#1737);
#1737 = SURFACE_SIDE_STYLE('',(#1738));
#1738 = SURFACE_STYLE_FILL_AREA(#1739);
#1739 = FILL_AREA_STYLE('',(#1740));
#1740 = FILL_AREA_STYLE_COLOUR('',#1335);
#1741 = CURVE_STYLE('',#1742,POSITIVE_LENGTH_MEASURE(0.1),#1335);
#1742 = DRAUGHTING_PRE_DEFINED_CURVE_FONT('continuous');
#1743 = STYLED_ITEM('color',(#1744),#582);
#1744 = PRESENTATION_STYLE_ASSIGNMENT((#1745,#1750));
#1745 = SURFACE_STYLE_USAGE(.BOTH.,#1746);
#1746 = SURFACE_SIDE_STYLE('',(#1747));
#1747 = SURFACE_STYLE_FILL_AREA(#1748);
#1748 = FILL_AREA_STYLE('',(#1749));
#1749 = FILL_AREA_STYLE_COLOUR('',#1335);
#1750 = CURVE_STYLE('',#1751,POSITIVE_LENGTH_MEASURE(0.1),#1335);
#1751 = DRAUGHTING_PRE_DEFINED_CURVE_FONT('continuous');
#1752 = STYLED_ITEM('color',(#1753),#594);
#1753 = PRESENTATION_STYLE_ASSIGNMENT((#1754,#1759));
#1754 = SURFACE_STYLE_USAGE(.BOTH.,#1755);
#1755 = SURFACE_SIDE_STYLE('',(#1756));
#1756 = SURFACE_STYLE_FILL_AREA(#1757);
#1757 = FILL_AREA_STYLE('',(#1758));
#1758 = FILL_AREA_STYLE_COLOUR('',#1335);
#1759 = CURVE_STYLE('',#1760,POSITIVE_LENGTH_MEASURE(0.1),#1335);
#1760 = DRAUGHTING_PRE_DEFINED_CURVE_FONT('continuous');
#1761 = STYLED_ITEM('color',(#1762),#606);
#1762 = PRESENTATION_STYLE_ASSIGNMENT((#1763,#1768));
#1763 = SURFACE_STYLE_USAGE(.BOTH.,#1764);
#1764 = SURFACE_SIDE_STYLE('',(#1765));
#1765 = SURFACE_STYLE_FILL_AREA(#1766);
#1766 = FILL_AREA_STYLE('',(#1767));
#1767 = FILL_AREA_STYLE_COLOUR('',#1335);
#1768 = CURVE_STYLE('',#1769,POSITIVE_LENGTH_MEASURE(0.1),#1335);
#1769 = DRAUGHTING_PRE_DEFINED_CURVE_FONT('continuous');
#1770 = STYLED_ITEM('color',(#1771),#618);
#1771 = PRESENTATION_STYLE_ASSIGNMENT((#1772,#1777));
#1772 = SURFACE_STYLE_USAGE(.BOTH.,#1773);
#1773 = SURFACE_SIDE_STYLE('',(#1774));
#1774 = SURFACE_STYLE_FILL_AREA(#1775);
#1775 = FILL_AREA_STYLE('',(#1776));
#1776 = FILL_AREA_STYLE_COLOUR('',#1335);
#1777 = CURVE_STYLE('',#1778,POSITIVE_LENGTH_MEASURE(0.1),#1335);
#1778 = DRAUGHTING_PRE_DEFINED_CURVE_FONT('continuous');
#1779 = STYLED_ITEM('color',(#1780),#630);
#1780 = PRESENTATION_STYLE_ASSIGNMENT((#1781,#1786));
#1781 = SURFACE_STYLE_USAGE(.BOTH.,#1782);
#1782 = SURFACE_SIDE_STYLE('',(#1783));
#1783 = SURFACE_STYLE_FILL_AREA(#1784);
#1784 = FILL_AREA_STYLE('',(#1785));
#1785 = FILL_AREA_STYLE_COLOUR('',#1335);
#1786 = CURVE_STYLE('',#1787,POSITIVE_LENGTH_MEASURE(0.1),#1335);
#1787 = DRAUGHTING_PRE_DEFINED_CURVE_FONT('continuous');
#1788 = STYLED_ITEM('color',(#1789),#642);
#1789 = PRESENTATION_STYLE_ASSIGNMENT((#1790,#1795));
#1790 = SURFACE_STYLE_USAGE(.BOTH.,#1791);
#1791 = SURFACE_SIDE_STYLE('',(#1792));
#1792 = SURFACE_STYLE_FILL_AREA(#1793);
#1793 = FILL_AREA_STYLE('',(#1794));
#1794 = FILL_AREA_STYLE_COLOUR('',#1335);
#1795 = CURVE_STYLE('',#1796,POSITIVE_LENGTH_MEASURE(0.1),#1335);
#1796 = DRAUGHTING_PRE_DEFINED_CURVE_FONT('continuous');
#1797 = STYLED_ITEM('color',(#1798),#654);
#1798 = PRESENTATION_STYLE_ASSIGNMENT((#1799,#1804));
#1799 = SURFACE_STYLE_USAGE(.BOTH.,#1800);
#1800 = SURFACE_SIDE_STYLE('',(#1801));
#1801 = SURFACE_STYLE_FILL_AREA(#1802);
#1802 = FILL_AREA_STYLE('',(#1803));
#1803 = FILL_AREA_STYLE_COLOUR('',#1335);
#1804 = CURVE_STYLE('',#1805,POSITIVE_LENGTH_MEASURE(0.1),#1335);
#1805 = DRAUGHTING_PRE_DEFINED_CURVE_FONT('continuous');
#1806 = STYLED_ITEM('color',(#1807),#666);
#1807 = PRESENTATION_STYLE_ASSIGNMENT((#1808,#1813));
#1808 = SURFACE_STYLE_USAGE(.BOTH.,#1809);
#1809 = SURFACE_SIDE_STYLE('',(#1810));
#1810 = SURFACE_STYLE_FILL_AREA(#1811);
#1811 = FILL_AREA_STYLE('',(#1812));
#1812 = FILL_AREA_STYLE_COLOUR('',#1335);
#1813 = CURVE_STYLE('',#1814,POSITIVE_LENGTH_MEASURE(0.1),#1335);
#1814 = DRAUGHTING_PRE_DEFINED_CURVE_FONT('continuous');
#1815 = STYLED_ITEM('color',(#1816),#678);
#1816 = PRESENTATION_STYLE_ASSIGNMENT((#1817,#1822));
#1817 = SURFACE_STYLE_USAGE(.BOTH.,#1818);
#1818 = SURFACE_SIDE_STYLE('',(#1819));
#1819 = SURFACE_STYLE_FILL_AREA(#1820);
#1820 = FILL_AREA_STYLE('',(#1821));
#1821 = FILL_AREA_STYLE_COLOUR('',#1335);
#1822 = CURVE_STYLE('',#1823,POSITIVE_LENGTH_MEASURE(0.1),#1335);
#1823 = DRAUGHTING_PRE_DEFINED_CURVE_FONT('continuous');
#1824 = STYLED_ITEM('color',(#1825),#690);
#1825 = PRESENTATION_STYLE_ASSIGNMENT((#1826,#1831));
#1826 = SURFACE_STYLE_USAGE(.BOTH.,#1827);
#1827 = SURFACE_SIDE_STYLE('',(#1828));
#1828 = SURFACE_STYLE_FILL_AREA(#1829);
#1829 = FILL_AREA_STYLE('',(#1830));
#1830 = FILL_AREA_STYLE_COLOUR('',#1335);
#1831 = CURVE_STYLE('',#1832,POSITIVE_LENGTH_MEASURE(0.1),#1335);
#1832 = DRAUGHTING_PRE_DEFINED_CURVE_FONT('continuous');
#1833 = STYLED_ITEM('color',(#1834),#702);
#1834 = PRESENTATION_STYLE_ASSIGNMENT((#1835,#1840));
#1835 = SURFACE_STYLE_USAGE(.BOTH.,#1836);
#1836 = SURFACE_SIDE_STYLE('',(#1837));
#1837 = SURFACE_STYLE_FILL_AREA(#1838);
#1838 = FILL_AREA_STYLE('',(#1839));
#1839 = FILL_AREA_STYLE_COLOUR('',#1335);
#1840 = CURVE_STYLE('',#1841,POSITIVE_LENGTH_MEASURE(0.1),#1335);
#1841 = DRAUGHTING_PRE_DEFINED_CURVE_FONT('continuous');
#1842 = STYLED_ITEM('color',(#1843),#714);
#1843 = PRESENTATION_STYLE_ASSIGNMENT((#1844,#1849));
#1844 = SURFACE_STYLE_USAGE(.BOTH.,#1845);
#1845 = SURFACE_SIDE_STYLE('',(#1846));
#1846 = SURFACE_STYLE_FILL_AREA(#1847);
#1847 = FILL_AREA_STYLE('',(#1848));
#1848 = FILL_AREA_STYLE_COLOUR('',#1335);
#1849 = CURVE_STYLE('',#1850,POSITIVE_LENGTH_MEASURE(0.1),#1335);
#1850 = DRAUGHTING_PRE_DEFINED_CURVE_FONT('continuous');
#1851 = STYLED_ITEM('color',(#1852),#726);
#1852 = PRESENTATION_STYLE_ASSIGNMENT((#1853,#1858));
#1853 = SURFACE_STYLE_USAGE(.BOTH.,#1854);
#1854 = SURFACE_SIDE_STYLE('',(#1855));
#1855 = SURFACE_STYLE_FILL_AREA(#1856);
#1856 = FILL_AREA_STYLE('',(#1857));
#1857 = FILL_AREA_STYLE_COLOUR('',#1335);
#1858 = CURVE_STYLE('',#1859,POSITIVE_LENGTH_MEASURE(0.1),#1335);
#1859 = DRAUGHTING_PRE_DEFINED_CURVE_FONT('continuous');
#1860 = STYLED_ITEM('color',(#1861),#738);
#1861 = PRESENTATION_STYLE_ASSIGNMENT((#1862,#1867));
#1862 = SURFACE_STYLE_USAGE(.BOTH.,#1863);
#1863 = SURFACE_SIDE_STYLE('',(#1864));
#1864 = SURFACE_STYLE_FILL_AREA(#1865);
#1865 = FILL_AREA_STYLE('',(#1866));
#1866 = FILL_AREA_STYLE_COLOUR('',#1335);
#1867 = CURVE_STYLE('',#1868,POSITIVE_LENGTH_MEASURE(0.1),#1335);
#1868 = DRAUGHTING_PRE_DEFINED_CURVE_FONT('continuous');
#1869 = STYLED_ITEM('color',(#1870),#750);
#1870 = PRESENTATION_STYLE_ASSIGNMENT((#1871,#1876));
#1871 = SURFACE_STYLE_USAGE(.BOTH.,#1872);
#1872 = SURFACE_SIDE_STYLE('',(#1873));
#1873 = SURFACE_STYLE_FILL_AREA(#1874);
#1874 = FILL_AREA_STYLE('',(#1875));
#1875 = FILL_AREA_STYLE_COLOUR('',#1335);
#1876 = CURVE_STYLE('',#1877,POSITIVE_LENGTH_MEASURE(0.1),#1335);
#1877 = DRAUGHTING_PRE_DEFINED_CURVE_FONT('continuous');
#1878 = STYLED_ITEM('color',(#1879),#762);
#1879 = PRESENTATION_STYLE_ASSIGNMENT((#1880,#1885));
#1880 = SURFACE_STYLE_USAGE(.BOTH.,#1881);
#1881 = SURFACE_SIDE_STYLE('',(#1882));
#1882 = SURFACE_STYLE_FILL_AREA(#1883);
#1883 = FILL_AREA_STYLE('',(#1884));
#1884 = FILL_AREA_STYLE_COLOUR('',#1335);
#1885 = CURVE_STYLE('',#1886,POSITIVE_LENGTH_MEASURE(0.1),#1335);
#1886 = DRAUGHTING_PRE_DEFINED_CURVE_FONT('continuous');
#1887 = STYLED_ITEM('color',(#1888),#774);
#1888 = PRESENTATION_STYLE_ASSIGNMENT((#1889,#1894));
#1889 = SURFACE_STYLE_USAGE(.BOTH.,#1890);
#1890 = SURFACE_SIDE_STYLE('',(#1891));
#1891 = SURFACE_STYLE_FILL_AREA(#1892);
#1892 = FILL_AREA_STYLE('',(#1893));
#1893 = FILL_AREA_STYLE_COLOUR('',#1335);
#1894 = CURVE_STYLE('',#1895,POSITIVE_LENGTH_MEASURE(0.1),#1335);
#1895 = DRAUGHTING_PRE_DEFINED_CURVE_FONT('continuous');
#1896 = STYLED_ITEM('color',(#1897),#786);
#1897 = PRESENTATION_STYLE_ASSIGNMENT((#1898,#1903));
#1898 = SURFACE_STYLE_USAGE(.BOTH.,#1899);
#1899 = SURFACE_SIDE_STYLE('',(#1900));
#1900 = SURFACE_STYLE_FILL_AREA(#1901);
#1901 = FILL_AREA_STYLE('',(#1902));
#1902 = FILL_AREA_STYLE_COLOUR('',#1335);
#1903 = CURVE_STYLE('',#1904,POSITIVE_LENGTH_MEASURE(0.1),#1335);
#1904 = DRAUGHTING_PRE_DEFINED_CURVE_FONT('continuous');
#1905 = STYLED_ITEM('color',(#1906),#798);
#1906 = PRESENTATION_STYLE_ASSIGNMENT((#1907,#1912));
#1907 = SURFACE_STYLE_USAGE(.BOTH.,#1908);
#1908 = SURFACE_SIDE_STYLE('',(#1909));
#1909 = SURFACE_STYLE_FILL_AREA(#1910);
#1910 = FILL_AREA_STYLE('',(#1911));
#1911 = FILL_AREA_STYLE_COLOUR('',#1335);
#1912 = CURVE_STYLE('',#1913,POSITIVE_LENGTH_MEASURE(0.1),#1335);
#1913 = DRAUGHTING_PRE_DEFINED_CURVE_FONT('continuous');
#1914 = STYLED_ITEM('color',(#1915),#810);
#1915 = PRESENTATION_STYLE_ASSIGNMENT((#1916,#1921));
#1916 = SURFACE_STYLE_USAGE(.BOTH.,#1917);
#1917 = SURFACE_SIDE_STYLE('',(#1918));
#1918 = SURFACE_STYLE_FILL_AREA(#1919);
#1919 = FILL_AREA_STYLE('',(#1920));
#1920 = FILL_AREA_STYLE_COLOUR('',#1335);
#1921 = CURVE_STYLE('',#1922,POSITIVE_LENGTH_MEASURE(0.1),#1335);
#1922 = DRAUGHTING_PRE_DEFINED_CURVE_FONT('continuous');
#1923 = STYLED_ITEM('color',(#1924),#822);
#1924 = PRESENTATION_STYLE_ASSIGNMENT((#1925,#1930));
#1925 = SURFACE_STYLE_USAGE(.BOTH.,#1926);
#1926 = SURFACE_SIDE_STYLE('',(#1927));
#1927 = SURFACE_STYLE_FILL_AREA(#1928);
#1928 = FILL_AREA_STYLE('',(#1929));
#1929 = FILL_AREA_STYLE_COLOUR('',#1335);
#1930 = CURVE_STYLE('',#1931,POSITIVE_LENGTH_MEASURE(0.1),#1335);
#1931 = DRAUGHTING_PRE_DEFINED_CURVE_FONT('continuous');
#1932 = STYLED_ITEM('color',(#1933),#834);
#1933 = PRESENTATION_STYLE_ASSIGNMENT((#1934,#1939));
#1934 = SURFACE_STYLE_USAGE(.BOTH.,#1935);
#1935 = SURFACE_SIDE_STYLE('',(#1936));
#1936 = SURFACE_STYLE_FILL_AREA(#1937);
#1937 = FILL_AREA_STYLE('',(#1938));
#1938 = FILL_AREA_STYLE_COLOUR('',#1335);
#1939 = CURVE_STYLE('',#1940,POSITIVE_LENGTH_MEASURE(0.1),#1335);
#1940 = DRAUGHTING_PRE_DEFINED_CURVE_FONT('continuous');
#1941 = STYLED_ITEM('color',(#1942),#846);
#1942 = PRESENTATION_STYLE_ASSIGNMENT((#1943,#1948));
#1943 = SURFACE_STYLE_USAGE(.BOTH.,#1944);
#1944 = SURFACE_SIDE_STYLE('',(#1945));
#1945 = SURFACE_STYLE_FILL_AREA(#1946);
#1946 = FILL_AREA_STYLE('',(#1947));
#1947 = FILL_AREA_STYLE_COLOUR('',#1335);
#1948 = CURVE_STYLE('',#1949,POSITIVE_LENGTH_MEASURE(0.1),#1335);
#1949 = DRAUGHTING_PRE_DEFINED_CURVE_FONT('continuous');
#1950 = STYLED_ITEM('color',(#1951),#858);
#1951 = PRESENTATION_STYLE_ASSIGNMENT((#1952,#1957));
#1952 = SURFACE_STYLE_USAGE(.BOTH.,#1953);
#1953 = SURFACE_SIDE_STYLE('',(#1954));
#1954 = SURFACE_STYLE_FILL_AREA(#1955);
#1955 = FILL_AREA_STYLE('',(#1956));
#1956 = FILL_AREA_STYLE_COLOUR('',#1335);
#1957 = CURVE_STYLE('',#1958,POSITIVE_LENGTH_MEASURE(0.1),#1335);
#1958 = DRAUGHTING_PRE_DEFINED_CURVE_FONT('continuous');
#1959 = MECHANICAL_DESIGN_GEOMETRIC_PRESENTATION_REPRESENTATION('',(
    #1960),#1309);
#1960 = STYLED_ITEM('color',(#1961),#889);
#1961 = PRESENTATION_STYLE_ASSIGNMENT((#1962,#1968));
#1962 = SURFACE_STYLE_USAGE(.BOTH.,#1963);
#1963 = SURFACE_SIDE_STYLE('',(#1964));
#1964 = SURFACE_STYLE_FILL_AREA(#1965);
#1965 = FILL_AREA_STYLE('',(#1966));
#1966 = FILL_AREA_STYLE_COLOUR('',#1967);
#1967 = COLOUR_RGB('',0.300000011921,0.300000011921,0.300000011921);
#1968 = CURVE_STYLE('',#1969,POSITIVE_LENGTH_MEASURE(0.1),#1967);
#1969 = DRAUGHTING_PRE_DEFINED_CURVE_FONT('continuous');
ENDSEC;
END-ISO-10303-21;
